<mxfile host="app.diagrams.net" modified="2022-04-12T09:25:38.101Z" agent="5.0 (Windows NT 10.0; Win64; x64) AppleWebKit/537.36 (KHTML, like Gecko) Chrome/100.0.4896.88 Safari/537.36" etag="HG2bf8bwM46sXMaIGyCV" version="16.2.4" type="github">
  <diagram id="C5RBs43oDa-KdzZeNtuy" name="Page-1">
    <mxGraphModel dx="1697" dy="909" grid="1" gridSize="10" guides="1" tooltips="1" connect="1" arrows="1" fold="1" page="1" pageScale="1" pageWidth="827" pageHeight="1169" math="0" shadow="0">
      <root>
        <mxCell id="WIyWlLk6GJQsqaUBKTNV-0" />
        <mxCell id="WIyWlLk6GJQsqaUBKTNV-1" parent="WIyWlLk6GJQsqaUBKTNV-0" />
        <mxCell id="IIxFM2otjkW1qtIXAb-W-28" value="" style="rounded=0;whiteSpace=wrap;html=1;" vertex="1" parent="WIyWlLk6GJQsqaUBKTNV-1">
          <mxGeometry x="390" y="450" width="730" height="430" as="geometry" />
        </mxCell>
        <mxCell id="IIxFM2otjkW1qtIXAb-W-1" value="中控" style="rounded=0;whiteSpace=wrap;html=1;fillColor=#dae8fc;strokeColor=#6c8ebf;" vertex="1" parent="WIyWlLk6GJQsqaUBKTNV-1">
          <mxGeometry x="640" y="530" width="120" height="250" as="geometry" />
        </mxCell>
        <mxCell id="IIxFM2otjkW1qtIXAb-W-2" value="分身服务端" style="rounded=0;whiteSpace=wrap;html=1;fillColor=#f8cecc;strokeColor=#b85450;" vertex="1" parent="WIyWlLk6GJQsqaUBKTNV-1">
          <mxGeometry x="440" y="530" width="120" height="250" as="geometry" />
        </mxCell>
        <mxCell id="IIxFM2otjkW1qtIXAb-W-3" value="分句服务" style="rounded=0;whiteSpace=wrap;html=1;fillColor=#ffe6cc;strokeColor=#d79b00;" vertex="1" parent="WIyWlLk6GJQsqaUBKTNV-1">
          <mxGeometry x="890" y="480" width="120" height="60" as="geometry" />
        </mxCell>
        <mxCell id="IIxFM2otjkW1qtIXAb-W-4" value="TTS+唇形预测引擎" style="rounded=0;whiteSpace=wrap;html=1;fillColor=#ffe6cc;strokeColor=#d79b00;" vertex="1" parent="WIyWlLk6GJQsqaUBKTNV-1">
          <mxGeometry x="960" y="625" width="120" height="60" as="geometry" />
        </mxCell>
        <mxCell id="IIxFM2otjkW1qtIXAb-W-5" value="2D/3D图像渲染引擎" style="rounded=0;whiteSpace=wrap;html=1;fillColor=#ffe6cc;strokeColor=#d79b00;" vertex="1" parent="WIyWlLk6GJQsqaUBKTNV-1">
          <mxGeometry x="920" y="790" width="120" height="60" as="geometry" />
        </mxCell>
        <mxCell id="IIxFM2otjkW1qtIXAb-W-6" value="今天天气怎么样" style="rounded=0;whiteSpace=wrap;html=1;fillColor=#dae8fc;strokeColor=#6c8ebf;" vertex="1" parent="WIyWlLk6GJQsqaUBKTNV-1">
          <mxGeometry x="200" y="570" width="130" height="40" as="geometry" />
        </mxCell>
        <mxCell id="IIxFM2otjkW1qtIXAb-W-8" value="" style="shape=image;verticalLabelPosition=bottom;labelBackgroundColor=default;verticalAlign=top;aspect=fixed;imageAspect=0;image=data:image/png,iVBORw0KGgoAAAANSUhEUgAAAPQAAABxCAYAAADiUo6VAAAgAElEQVR4nOy92Y8s2ZHm9zM7x90jIiOXu1fdWlnFqiLZze4mexlqWppN0rQEtF5GAz0KAvSkZ/0JetF/IA30oAcJgkaagYAGBuoR1BgBRItq9fTC7iKbRbJYLN5by13zZsbq7ueY6eGciMy8VSR7oAEECHQg7xLp4e7hfszss88+s5CPnv3Y+cX2i+0X2/8vNv3/+gJ+sf1i+8X2r2+Lu3+8/OZ/DsMTyBtgRDyDO+4jkMFT3dMAL3+7o2Tc6/+vbH7pT577/cX+Un/Ky3rp94D4ldf3++HgfuUVAJ202DCC7c4qV84s4uWYLmj5CxfKHyJl790fbhfHEMFx6h6IKGiDmeOihKAEUSwbQRvMDFfBAZeAU85nu3MjqJZjuQuOgoDOjjCB0Cc4uYa8dBN9vCCfniO3Dpn/R7/JePMA+/EnhC6w+RffRRZOnE8Zn5yRztdoMgKOq4A67kacNMi0pXvpOmd/9j3UDLYjngfcM2blmbpnwJHd85GL24HXp+YgQn3mF/dY6v1yqc9kd/9EERHcd+vGrz5LFz4DEcUv7auAUp5A5rM7f84mu9MYf52YJeL18+xW479O0Pq8XTy/OZD/XxxfgMBHp98DLhm0xzuoC+gSfEB8LEZjPe6pGPj+5I5TDFw8VwOqj0gSFw9jZ3i7C798EbsH67slgahWJ3LVoH1n/LubLuX9IuHqfRkFJYBeXmx+6WwOYoTYoDEw9gOyO+9+X0GDkvPu85YFGScTxr5HMUQDoT1k7Eea2Yzsho4ZwUAa2klLGhMigmkxaBGhO5wxbhMBxUdDRTAEF0EMwu2XMWlhY+i1G+RHD9CDl2gPXmXyO+9g/+G/xfgHf8j1f/i7LP7lXzD/zQ6PsP7Lh/jQEeiJ2WhnHdnLM3I3ECHMGpq3Xqf9cIksN+Qwgo2IZcwyuOF5RMVAldT34MWRO7437p297v7e/UOrAdtuHXhdpBLK53SjLO5iNEINGFfWw+5ZwN7hi+JejE5sxD5jbJ81QLl0se6OasDcq5P57PtFpDip8knLOpOr+104sL/eJnvHtvvrpxnt513Tv9KZgAs72Bu0pEWJzt4DY32QGWfAPYF49cLlAsLliH0lUGZ2D+6zN2Fn+J/zer3hznO7+EWUkL23lUsrquwk8wm+2IAIJjsX4WXh7KNuiYZmhiVHCbTNnGRbsqV6JCen4pQ0NiiBbJlxu62RtMFcUYRmPsfU8REkNMXxiCLTCTSGj5k46/CUsZQYt1tUmhKVQ8QJqBdHoNduITJBZ9fJ/Sf4o48IsxYLiXzcIr/8IpufPKR5umTxx98jPnrM+OQRw08eomeZvE6ETYYm4lmIk5aElvs0iRz/O7/C0/c+IJ8tCV4WrboU9CMlKptGBIjzA2I3ktarssjNcLcSuW3EBZrQ4NUZFIPfoSgp+0nEPKMhEkKEsS/3BsG8+lxxjJ0DV0QVCVr+bwLuhNgUZJDH+v4dUioowqlQa79Y6vlDQ+wOsXGLW0LMCjoSwaXcF8/l/S4FBSAQNIA7luuah4ou7NKauhx3ta7Xq5FYHFBFQ7d/zdywvL1kB+X9IqHY2G5t75ye1BX5M53JVXS8N2jyGrEtSDFI28PoXF+rEVd20bLAqJ2P/ettQlAhNC1p21/Ybb3w4orLh9x/3gscfPH686e0TN5sUf058MqdppsgQRnXG4K2xYnYc15SBJGAaAOhQ1IPaSQ0HeblZltS8IzZCBpIKBoj7ckhozthNsM2Azb2uAsaWybXTxierfC0M4B6jiYyfeNtzBu29+4jMaIIctDidw+xtmXzg/sM9z4lfnhKd+OA4ewMe7wgrgfi0QHxKHL46h3Wy57+Bx8jaUSC0h0dYdennH76KdtvfY/QxgKaNonQNORxJKqQx1yhNIzLVbldEkp6IU5sIuMwEGNLN+vYrta4CEG1+AQJCJBTQtRr1Bc0NOjJCZyf4sOAACpgrpeQliOiiEa0iZg5wQrEVhUkRnIKWBpQ8330c4pDES0RympU1cmMMJmRNxvE/VIGJmg3xeMEjR1mjg2LS6ig5BVuXpdiRlWrQ8vlwt1wyyUJ8HLdjte0ojiyXaR30X2qqvGAqIFxO4BltOlwS9VRVgfjAImCcyKCVnT68wz6YtsbtNoaKN62ANBUPoTtPKKBOOoXOdbnG3N5t+891gXMAkreOQzlGO7lmdYPs3e05e7Xa92d7yqEKUc2QoxoN8fXm/r+iwP5/npKREXBh4RJgWGiQp+WsPP5IvXmKiG05OSIZ5yARyU0LT5ahYEZPNIdX0eAcTMQmhbmR/hihQ2JECNBInnoEQ3Y1hGPYJlAw+TkOsN8zuSLr5PuP2ZYnkIQVAJyfYocBWa/fRe/MWX88VP0bEmThO2nZ/hiQ9RIvHuTyW9/kSf//M9oFltEAzEE7KDDNwObp8+IJIa/ekyTG6Rx2m7CaJl+u0HMMbMaWaXe9go9RWpkLMhGg4ILOQk6ndNcO0Zu3mC89ymyXmPDltk7X4Drh6z+/Ls0/YCGFgzC7buMi3NYLAiWcS1LVSp3oc0Ec6WJHSmNSCPYsCE5NO2U2MGwXICNXHj1UAyueiIBmuMTMpC3PZ5GxCn7IKCReOd1xsWzYvzNBBEDNXQyRduO9PQJPvRIFPCASyAcdDiGbfvyLCUgqnjOZR2IgAaCKBJbzKzAfNWS1jhIU5CeNlMkNgiRvD0rqYlcykz3n63ax94OLpmw1Nf3sP5ih4sc2geQ4omyG4Fc856dMSrieQ967TmIcdWgL0zuOTxer7XAiOrbqmfjs/uiFG+1I5AuvHM5VIkEMhYvXcgdQVT2n9EpJJQ4JToJpGFEFMY8lvy4aUjDbqGU68+WEQJi5WG5Qsog2iDmIJm27cBkHyV0NimefTtiKeNNg5tiY0ZHwwZDY0cMinlLePMtbNyy+uRTutiU+9W0yCRiEWIAfesmmwePSadLNDnD+RrZ9kgAn0YOfufrPP4Xf8TRyQmbew9hNeBDRlMmizP/pTeRr73K4h/9Ho07mo009DXK7NyyEEQrHBWSZdxLjt9MJ9g4ImMihICHQPfGy/SNsn3vJ9AnFGhuXCccHpCuHZCfPaOdHqA0ZMvYcg3thPbmCySN2NkzVEo6VKJhQDXiLoxjLpHerFBasxlcP4ExEVPG8qIgCavRtEbX4vuNPGTCwZS0WNfoCTuSrblxB+um+KOPcR8QU9yN9vCY+Pqb5H6knXT09+8Xx9i2WGggSEFoLmVJWyK0LeqZ3G9xc8wcCYAVxJfq+hf3gmJsxHNGQkAnB4znz0oasE9Ndz81J74U3eSKXXhNVy5CHZeQ6UUOLcXbiBvuCXPHsZKDXry1Ghb47oTPkQcF819mNHX/78ukyu4hXFy37D+P7GKyCO7F7K+ykOVGTOZzPBvjtq8wece4ynOuwfEg5Gy4OaKhQr9yTJVIbCOWrWRoUqN0OwErzsBjYbFzFmazGSkNWM74OJKTFVjYJ2z1DM1ONzkgV9crMeLJEImQlXDzJnr7DmcfPSIeTYi3T8iLHp925TN4ImwS7fEB27+8T/+nP2T8eE1cGTGXCO6j071yxOoH92jWTvyP/yb5v/7nyJAZtwN5HJl0kaPf+gKbtOXWySHr8zX9psfWa0J2IpEsxXHbnogskVqlPDfRgPlQ3JwIzGbYi7cZv/tDdNvjw4A5DIuO5vAAf3KOP36GbFN1quVpyuOn6DAQDw4xj/jyHBhBigH7OKCi5dmo4MOIiBPcYbHGEMwUDW2B86I1IOyCA5gLOvR4iISmxcZtXa8BnbR1DayQNqJ9IdhUFbqO8ewUVgvi3Zt0N99h8+73aW9cY/JrXyK99wHDwyekfiAeHOB9j+2Ms52Q+21BLrnwTBobwqQFM3K/YRx68KGSuEYeB5qmJdcocZF2SiV+PxvaLrbLSLWkbhKb/W8vILdbJSMyVuG2e6qm5fu/Lwz2EhFxZat59/78JQ7o3gvt0mS5jBSuLKaL4+5KIVRChD08EQQbC9l0lSDjivMpV+S4KlFiIfYqKUT14Hl0tOnq4tICxxEsFQMPIeAiWDa6borHiI8ZFGxISNPRzg4ZliuCCdI2WKpX76HkSxjiyuSdN+kpkDO2ATVDVj3Jje7WMenxU8gDlhKbn2zIH9wHH+lUkCzlvmnExWh+5XVWf/iXzL/+Rc7WZ4RN4vDokNffnHDjxowvf/F1fPkMb6D/O2+SPHD6bMPjR6fcv/eUTz89px+MECKWE1bRkHtxji4wjgmJsaIf0O3A9r0Pmbz5Or2BnZ7RTCbIbI4vN/hqXV2u1AVcHKaQyGcLXDs4PMG2I2IR6JGKFgrTbriBaK1YjI73G+J8Tm67EhE1EAC3TBDAc+GkJBTjFinpmJZqhbYN7euvks6eEdcLuH6CPc74MIBAOj8laqb96hssPrjH5FffZhLfYvzgUzg9RV+5jYwjMQQw0INpia7jgE4n2HJTHOKQcRF02mEpYdseUSEQS3lzdkAeB0ITIbbIs6EgBZF9ZJNL6/enZc5+yaiFq6h1b9DZE+I1Irvt64rPHQnbR+fPP50/72GuwImyqQZCCIxjqq/uShTP58myI0+59Ap4oJm12JjxfMFs+qVc/fJhdMecjuOlUldheEUCiGLJUI3sbqk2LYwJU8WlwOYQG9wdaxp8M0B2RFqEhrTcoFlxDYgH3AM4Ja8aMnr7DsxnjNMJeEafnBPaljxpGDZbYi6IqJ12DE/X5L4v+aJCM52h2ciayUHQbNCC/to7pD/6HgebLa8tet7+G6/xzpuvEhj5/l99h4c/+Q6r1RrLI8ky8/kRx/MZL751nS+8OOXBwyN+fO8ZH31yzjJntGkJIWCbbY3YzvT6NbIb5ES/WOMp4/ce0p+vCht+6zbN0SH9YgXrDZqMcb2uuW0hy0pVM0AIBAvEk+usF0t8k9DYVZhaS2f1yWmM5RokQBPR6YTx2TPQUNECBU1CeY7zWXGcKZG2K2QcMS2cgEynjJst/ugpejynffsL2N0XSH/+bgWYgkwm6NsvERZn+AcfE77yGs3f/Cr+ZEVuFc7OCTEWBCJKDkrs2oK+XMnLZWXJIfdb8npT+Bcz0LKOc7/FxoT1Pe5LpOoVimFWRPTZtHjPawhX7cN3eXa6CKB7gzYKy6mV6SvHUS6ibfG7Oxj1s5m3C7LDbScwuPhdNsPsMmzXCsdL+HV5Pm+4eggXyP1YIboStMM97WG5X7kpjpiWG6W1Viq7KBRAIqigISBeSjRGILsXUiu2hSi0nRcNsB4Rb8r9kgYIZKGUXZoWQ6uzKJ8izI/w9oDmzdcYPv2UkDN52pFLMkhw8H4grzfkaVvzeUe6BhcjJyMezUmWkW1PShnzwNk/+T/4asy8tX7MjR8tuffgI37/e39CHhNuxnTa0jUtbdOQLPNg8RFPmoamaWhig7rz+ovKS3fu8O33HnF6NuJpRKWwqy4wLFeoBhCI0wnjekuIii5W2HJNODohr3t8tSLMZgQJEFvcCnIKsaQyZg6uxKMj9PiY5uwEmbb4aoWnDOJYvyWIIDGwr30fHNBev0FarUpEjs2+Ll2WZCZrQ+wOyObYtifkolFI4kgoAqD26Jjx7Ix0viT90bcJBweVWVfQSFpsaYaB7ne+hj7rSUcTwt/9BiItm//2n9LenJP6LQwjGlssjYxpRFUYV5u9EGv0jIqiGF6SLiw75IzKblFadSSBXdVob04iWA1NWlP24ryeg9p4FQ5BzruS1+WyFQ5umO+kAcVoL0fan1dc3xvlJXP8LDDfRdELhrvsL3uD5AoCuGTYKrgZB0fHMBjr7ZIggRdf+BKnZx+zWZ9eYd5FpEB+FTznPcQuhlyMU7Qqmaxm/KKoKJa8VMlUCd0h2TdYSmhoCbMDhsWaAngCIqXEICEg2oKVeiciECPN228wJEjvPyDMlBSdKEo0yH2P5kzOiXG7Bh+I1w4LESWGCGSBsQnQZ+LBlO43Xmf8i+/zyv0f88odpV843/9kxWK52Nd426YhhEhKiZwz/TCw7beYlcpADJH54Rx3p4nGO2/M+Kv3VqxWiqqTbUQw8pgxMo0q0gZCjGVRtx06PyhlmO2mEFXrNRlFY1HS5ZxLRLdS3lFRQtMwpISZEmNHOO7IqRBG3eE1Ur9mXC/RZOh8hhydkLKTtyMSGlQCtgs8WdHphHjjFqnf4h9/SnNyjOQpMUZ8u0XSiA0Jf/CU5uYdBn+ArDb4ti9sszY0kzk+mzB85xNk0uCv3kJfu8XYr2HzhPDadXz5jMmXXiZPZozfv8+u3Gl9JsaADxm3wr+IC+IlKIAVwxQhj+Ol0qpW3ieCGSK5GDhlIRbC98LIubSyRSp3gJR0yS7Q9AUp5uwvcieDvACwUsmyS+Wjz7VoqfW5i5cuSK8L4cFnDuG+rwW6FUNTBfNc3rfPL4qRDKsV0CCimGQ++fS9UhOvqqhLF1T1Kn7JSSniAdWAq5YHUK/dqzMRoNESsXNKNLdv4YeGP36ID4lxtSl5tkTwgJjSxikeIkjAxNBshJNryBuvsnl6SugU5oHcKKqKrgZ8SHg/klOPzBt0MgVV5KBDplPaww6LkXy2wbMBU47+wd9me/8DXvnOfV46mZKTkVImjQND3zOkzO3rN5jNDhhz4nxxRt/3ZSFV52YOY86s1mtEhKFyF2+8FHi4mPPpgxVQmNycKhSOiqdSipODGYKUimnago8oRUCSxx5LJc9HivIvoLgKse0Yn50TX7xFmk/w05486bAmICGTg2JuNNmR1hiT012/Rp405CdP6Q6PkAR5s4U2lHudBGKHDZnm8AQ9OmI8fQwHh8RuRnrysETJ06fYZks8OcH6hKeRKPUZhgYPDfp4g3zzQ+zWQ9LdQ+woMP833iZ94y3C69eLrPcP/pzw6An2ySk7kdVOV6BByVYFOAHIRZUYQqTvV5X/qWu96hmQUpURGnCpNfMdKvZdqLtEnF0OjQFoUP28CO1SIbBw8Ta/9L+r+enzm0AV+nJlv11RYafx3RvPTi5a2ekLafBeMV2j/YUTcXeariMN26IxL+zaRXntswk3aEBy2jPXQkAlghbCRvZcaXm/iqJtxPuhXEsyxicPkTuvoDfv4I+folg1/FCihkYkTgjdhJwTmjPtGy/hEkjPlnQHU3wGehBJWbDlijSOMAz4OBQhxmYgzjssCvEwMP/7X8V++RXs+Aj9wUP0Bx9hs0B+8gEv/f7/wrVW6PuBcdySUyJnY9J2fOH1l2hiZLVasVqt6LcD274nW6abTJjNZjRNS4yBcRwYhp4+GzFEVJXD+JDtYcdZmiOx5H4KpMWCZnpQ0qGjA/K6Jy9WNNrApIWc8L6HWoqCwvxDKImlUCKWJdiumNw+wWNEQsBS2j+JvBkxL/l2PGiw8yXj/QVxzORxTRMnHM6OWfcrxAUbRvL9j9CDGXr7OunxaVGn3TjBzhY1UNXnu+kxM+LxEWmzAW3o7tymX2xg04MFmFPOLUr79qvkN16gf/cH8HRJe74l3r1OujZHfvKkIL+qU9dKZWkNBO6Zpu1g0pH6gaabMNYSl4ije1JYEI2V1MvVfHcBtbDeu/i7Y6c0NISmJY+G5UTQCzO+qEOTkZpHs1eAFclb8RBVHvdTxOb7Popdnrk7gUBQZfRM9krR7+vOO2PVS7U4qifjuWhbQEcaE+pafONlyV89zhWoXnMs1VhKPTUKGwr1/yC0k4683e4Pk8dc9q/Hyasl+vQJOj8mzI7QIAzrTSFhRgGNoBHTiM9K+SY3kRwCOg3kqPhyC6EINTw5nhOaBkILNmsLTE1OOGyY/oOvc75aEv7gT9jOp0z/vd9mnASa//Gf8uoPvsfhQcO6H8n9Bs8jIkoIDS+9dJevfvkr/OiDDzg9PWXs+wrzirMahp5hKNFaVRnHAdXAZDIhRMieCVG4drDEfML5SqHvSTkT2gnJHB8TDM/Q6YSDl17AxoilDNsVdv6M6BGzVFKcccA0ghRnEScd7ct30L/1JTafPKWZR1Qa+uUaXY2E9UgILRvZwpjQecPw6WM0JbSNRdhBovcqnwwRyUYce/xswDZLZMzE2zcZk5GfPCMIiGkh3mqaZYdzZm9/Abl+Qn7hOkfnW5bf+kvItS4szuGvvk766l3Ov/knTA7njPee0rx8l+3DJ6QPHxJDJKcRiUpsGhhSyX2rbr09vg7jSBpH4rTDtlW7rwUF7pDwxVrXfZIrNPsK00Wth0qegcaG9uZNhs0WWywhfR7kZrxkvLn6iWpkexnoZ3No/Vxabmd+DtoS4pRhOP/Me+Xyn7XmfPn9l4vr7tBOp4xD/zku5XJprd4UEYKEwgloYKdg0xAwSoSWig5ytiIYkSISUVHMdyU0pTk4xMeB6IadnJD6nth2SDfFl4mm6RBtyDHiN+b4C9fxsyWNOeHWCWMwclTSOOCLBVEyabFiev2YcdyStj3tjSM8Znx08tER+oUXiL9xSPiL9zj/L/8x85+8zyvPfkQ8nLBcj4xjkVbGEGibhtlsxqRtGceRo8NDlsslaSz5s1iiFOSK13ezkkuHSEojfd/jOEEjqpGudWZnn9A3L9NvIbqWxauFKI3thNQb2RqyFwfYnFxHQiAvznELhKbAbYmh3F8BDRG7cQCvHBE6I8xbdDCmN6fkJyv67/0EkQQxEmJAXAjJcQMdUhFwMJCtL4jCSzkIjYX/MZi8cAfeepn+Oz+C7YCJVjKK8pxu3GB4fI7O5mzXA+nhU4YY8JwJDvQDqof0xweM3/4B8b2PSclp7txm+X99BzVj9vV3yA/P0bMF0+snrD/4uNxPUaTtOPrSG3in+GqNL9ZsHz3Bxgwai6bBK4HquxIwFC17U9GNFxRp6dL63mFkgTHhqw3MptjQI8PqswZdoEA1h3rWHeNt5oSuwVIuKinYh+RdIZydlnW/GSLOaFvGYbO/nCs+Qa7CeHkuIj9vtOM4cImEv3wgLhN4IoqGiBBpjyakzRZxMHfa42PMpKjFvMZ0L3rkAsIdsarlpv5oJA2ZfL5CDovWWGdTwtEJzAU73+Lbke6FO6Sbc/r7jwjiRYzy4BneOGG9wZ8tydstabMhuJT+g2mLLkfG8xVRDHdl8T98E3tpDn//1xlnEw7e/5A7z94jTAKeSz0ch5wzk8mEtuvAnGG9YtysiBhqiahamg1wmhDJvms2gM12w5jGonASJY0jiUzXdmRz5gctw9kDjJtY1RZIdrquYxwy2k1AWvz8CTIOeNeSh13HlV4wJqJYKAuYkzncmhM6x05aNCXCtMHmB4zvfsTkSy8znm2JP35I7AL9k6eFdhSFNFCAhpBqNaJYumBFlcz09l3u/O7f4qEvmW+29NnIi3PICVHDpjN0LM5h+d6HhDYScEwC2s2wWLTp4cVbbP74ffJ336e9OUcPp/gGZAXj9x8WTcPJjOYrX2Act8zf+U22P7yHrBMsR45/92/x8Lvf4+DTU8KLt8jDQDo9L8o1KR1lLlVyayX9VDVyvkhDS9SOKI5W3Zk7OEbKDosVvqktsJ/bnFGN5urPhfE41Lriz2a6nzeyC0PetSheOptfsOJXr+G5Izk00wnjMH4OEnj+nDtmv6rDhqLwMBRU8cGITUM2x7PtaA2E0mJX5IIBpGGnA/f1FjRg/UgbesKNE+Slm8y+9gUW95+g3/6Y6Ze/wLAeGB4+LQx2LCxmXvWE1KObLcNqXer7JuQAttmgxzNyE2G5JlvCFPJ31sSPptikgXc/4uTsA4IN5DwtDRGxxVOiCQ1tbFCD+azjzrVj5m1gY3A0jQTrmHDAph8ZHVJOJIxsJd+WysSHUDTRm+2WGArzv16vmbTQpzWbPENjhJwZhh5zQ82I8yNcA+3LLzCMCelLSUcxMEO9NmtMWm6++Qbp5hHjpKM5aKE1EEMmEzb3ntA0DbNff4f1x8/IA6TTU0QbNIDnhIsitWw6beY0kwmL81OapkEkYhhD33P2ow+59rUv8vDmCfLwjEalODJ3fNIxfvyIIBkVr1JMRczxNIK22NmG8X//E6QfaBz8w2fk4xlpSMTeUevwzci4PCe//5D4pbsM33gBty39H76LpsjZH3+bICPbTx4yrHuag454/YTxyVmtWzuWEl7TUbNUxDRAWawFJZZ+fUG8VmdKls6uIsXYo77rbizbBeRWq0x2udGX81gJAU+lpvZTETY72PzcLz7HkHfGV9aTfs6x/Op+gI+1/W2vFS8a4HKMS0UyjYUby4ZKUQoJRXwvkwkMidwXXa5pU2Bh2xXlV/Z6LYpVBnQnRwzNhJwcPTzCuyndl19mexjx9Uh7csLQKskCYa3kXbdazki/wddLfBzwMeERrKn3cTsw9j2eE812xMnQwMGXXmTz4Anyp/c5fHqfpn+GBZhMOlSEGCJRlKBKp4GbR3PeeeM1Xrp7k9l0SpCAf/kthvWWzWbN6fmCew+f8OmDR5wtF6zHVJ5l2JVOSnqRY2K5XDKbzlBVtv0WlVOCH+AakS5iwwAJchqwB/cQDYwfr4vsEoNRcPWqaCttnN5E0rzwCuFwyvh0U2prsWP74Rn+px+hx9fYyBnpO/ew9Yh4B9LVbifKMT0TQmAYtwxSFYK1iqECdv6Ms2/9GX6+ZpKMzcEcazt0sSKdn8NiU1FnicR517gzP4Bph5+vIY0XJCrAkJDNppTtKrGaTdAseGzZvv+A8I/+V2b/9pfRv/drLP/Jt3j2h3/C5IVruMJk1mHzCeNPRjQ0RXftRhMmtX7spdyZbc9ne43LtkuBK5lbiOCiEUiWCKIEv9pp/VyEft6Yfk6Z6udun33vZVj90yH21ddj15FSHaggFw5ip9ne9Um7F5YxWekQIiiMhoviuZSSMkC2UqgXUAk03ZQxbWoaEWgmU/oxg5fSiKC0syO2fSIvB0wi/hf3sSi02iGv3YHTBdGdJIYGkDxi/QB9j/QD6hkXJ8fAzt9KLl5WhkIi6aQs+ElakHEAACAASURBVPDlu0xfP6H9tdfw/+IPWK3PuH7zFqqBptaQQ9tw0ERuHs756pfe4MtvvsndO7c5mB8Ur+/Ger1mu9kwpoHlduD0fMnHn3zCj358jw/uf8qj5bIQRbUpAzM2qzXPnj0laCh6blvSyCn9MCeRCsHjvq9151yuPWjt31UKlKstqRZBp1POH5+iHNE8VOR0RRDBtiM83hAfjmgasO0Z4ekWGYpzpZ0gJpgWfQRmpCFjGL5JiARcbd/oIzlj68zpn36XZjaD2BTlWN+jY0KylbJQCIQ7N0nDSOhawo0TvG3J9hB/elq05FZTTgyzkRAnuDiUSnshtwwiAVkOrL/5feKvvMrBO68SNeCThsVf/pAhecmLRwrx6Y6GBpm1eL8t8lAEQmkuEglEinTVUcRqL4UmqIYueO2noDrjz2W5y6aEmh7n/cL7fJvTMsbnp7HeVVf72dcvCUioH/DKHrqHvy4FWowp12EyFXRUR2BBCJMW25SI41pUM4LQHBwW8TtlAodqg1QFUQEgUuC2BKwvlFFhwSPZtaYWZaCBxoZhndA4oZlOSaPjP3rKwdfeIR9N4GyF9pk8JtrJBFZbdJsYlxts2CJimABNabFDFB8SMoxoHov4wjNpTAQ6Ft9+n+61F9h88/+mffYEnTSEEEgp0zbOJEauHc558dqUX/nS23zh9Ze4Nj/i5vERbdtiXvqEu6M5HB8Ww7JMyk7/9husfmPNoydP+Ivvvc8ff/u7fPrsjCRKE4vY5PT0lJQTtdZEE57CwRHrpZP6ATFDazOCasSmDb7aIKlIMSXuGmogxCl5EMJ2jTYdshhgTOSDDlssMReiRPr7j2i6lvbGNdZPFuimJ2gkB4M6oMC1dC+1sSP1m9JENFpllkvipO6QN8VBxhlxR3zWvmY0EA8mjIsltukhBux0gcxmmAjqYa+lENvVgWtfctDCn7ShSFNXy2JsEpDHK+yb30ffuAkvXmPz7gd00oAbadgioSM2LWO/wQzy2RLzslZxxUMJTWZpv9ZFI6ZSPruBxlio37SD316J5M/ptvrstmtu/JzfaPldofk/a7A/6/97rXdN/J8/fkW8pYO5NtdbLpS/PjdjDHHGMRHqfC7k4rg2FHhSXg61ob023YsXBtXLYIw8JpRAkFi026myjKGpQw4mqLSEyQE0DRGhuXuLvO4Rz3QhstAeb5V+syl5zdAXSDttSaOhUfFq0P16C+NIyBm1UHIl9yIB/fSMcP8h+dEKOXufLJkuTOj7nkk7JWrg+uEh77z2El/7yhd57eUXOT6c1TwYXJwYGkQ6spTSiCNYzrTZmDYTjmZz7ty+xS9/5Zf5d//O3+X3fv8P+N/+z2+BG13bMp1OWS1XpFwkpK4DzuaiddRL44rkARPDhx51J5tBKGmQuqBdi+Vc1EybnrjY0K83BV5eP4TzVSn1dRPCYFja0o9PsbwjKAUPiltTmHkvktgYGjwkctqWdEqopaACzMwdzLA01DxccQnQaNFUZ7DtUFZ4tnKMbU93fESKsUBhKbJMra2doxm7UUWYQ5/L4qnXKS4okeH9x4xPVsQbJ/Sf/Lgw8R7wbPRpxb6dV2KdlFUGQjhFnuwiZSYdjuRiIBJLKqmxKVG9aj2sjnm6LJO+NOBgFzWrV3L2TPZz5lx12HVg285onmvmeP6du5zkAiZIZdn2e8AOUOwEKl70xIYTLtW2L6g2RXIxeq/XINJU9ro0tZdG89I9pTuFGIaES3puVzQ0NN0MM2MYRlRb0BYJHdrMoOmIB1OSO+Fgir94UkitxZrluCz9yQKaM7bcIGPCpPAR1pT2Ns9gYkWvrAGC4OTSihcD3WxKv1kx/cbbbH78CXHxrDhPL4tI3LlxdMSX3nyNr3/lK3z5i68zm7S0MZJsKM7StTSZxLgv4xXuI4IktCnPwdxRUd547YT/7D/9T7hx8wb/0z/7ZzzbbOialiVLvPZFY46kDeotYrUtUnbVEMhuTA+uIRLYbM8Ik44cA3m1Rd2wYUCblnG1xNY94eQE2WZkPdJMI7ZYleclAdYVgqrur1Fix2ClxOM2MKahrBUp+SgmhG5CymOJwiEiZpj1uGTEYtGHu5VRUyGiXoZUhC4gbaml51vXyh3bjDSHx9iTp/hmBeTSK25GaIo+wTVC8DLNBifQFJWjCXa6Iq172ldukz56WpCsjxiGmoKUQSKigkhDroSYRoGxp712iG0H8rrW27ODpaqHrzn2DkE+Z20/I0L/jC0opJ+9i8ZQyyuVLX/ewn1XGa7FdfMLNdxuKcaa+1KHFlSluhbh0a658uKY7RSrEVtF6iXWSD9mghemGy2G7i4YoRJtkT5boUm0KbOgtEXDlBgm6O1j5NqUeDynuXbE8OgxebEkZdCuRSwTtwNxOmHzbFEEDq/M2a7XSDbctMzwCoGQC3EkKqUFszK4OZfuG3ntLjo6/vGfEZtIjIGUy4CBO7dv88arr/Ly3ReZTKc0MaIqtCEwjD2OkKX2cHsdk6Ol3OM07FRIiiBByDhthH/4H/z7HEwn/Ff//X/HZhgK+dQPmNtFA4Bf9LQXvlQZyaXnRerAQy2VBRsSIde0iXKPxtUGTDk4uY4MmaUv8U1fPGEsZTjxUtbJKaO7tlUFCRG1SPZEyj2R2kWXC400jnWkVQw0R8fk5Rof1nWIQUabhslbb5BUGE6fIWenBS2MZfggbSSHUgILGkjJiJMOxm1loK3cT6uoQXZyZd33AYg5Yo42Db4dad58Bd+O+MNzqGOVdhL/bNRusEBoIpObJwznZ8isK4MiVg8vlJJVdOV5ZCd/LulndWiXtisGLTihtlBeHQf0nC3m3UTHn7FPuhCwVTOsOWp9RaQi58rs7WZsXWq3tFwib6jND7vOlP0evusFLZ5KzYqBoOQiBic2k5IZGGW6hdu+vbEIUIphE7rybzOIEdcJGid4bNG7x/jhFK4dIm/eZHPvETqONG1DO2/oNwPDWY8vV6SVEW7MGE9H7HRRoPAAMqaCCkIm57GghFzIHkURM9J6g5ix+aP30eMJbStE11JhiEU8cjSfc+P6DeazaYGLXShV4lS7zcRKtKEoo0SkcAa6Iw8rvNOdcKZAZbHM3/vtb3B2tuC/+cf/czl2vV/mTs4r3E+uljG9lKZEhH59hjQFktsulXBFxNA2kBZrgjlZjM3jRwQpZTP10nmUU4aotX2+cCKkVPLati2sshYdvlvAPWMuuAQ0G2JGFmX6xkv0T5cFkYWinQhtaa8Mb73GtJ1y9v0P8ZMj5AcfoNFJ2y2xjchiTXzxBvneEzhfMGgl+6w4mjJSrOTSkitCkAbDMR+LlsNl3602vPsDwp3byNMV5rnqvEtgKkhUkQau/e1fxc04uvOrbM/OWPzL75W2YK0Tc6p9uO9EylZ6xYn4jjCs23Pi559tpP8Ku3x284LgZdcQIYJqWVg7Kw9x1wUFIQRChcoF+n9+vr77UdWS03gohkmJTjtyx3eeTQp7W5orilqndFjVTqk4RcIUjVO0nRGnM5obR4z9lkYUGUZktSEPI82k4c7hjGYzwGKD9yO+6bHFhubmNeg6NAnmQh6N8XxDOl9VUCFYDHVCR5k60RweQBDkg0/xd39I9UIl2ibDUiIItG1LrGqqnDPjMDCmVPbdGa0ZOaUyVYVCOmez0spYy5M55zLjzapRY3zjt36df/M3f5MuNvuyorgXBReFUb7c3bO//17KYKGdlDQmxv1oHEs95IFkAyEn0tMnjOePkTRUh1Gnh6ZE7CKujmt1GDnDti917XCh7tshMxEhzqYwmRCODovcdtMTDEI3IRzM8DYSjuZsfvgRfPiY2VpIZxmVDpGWMrAs4z95iIrSvHqXZj6HVD+vlJbc0HbEdkqQdu8MNVw1IXGwTY/ESDw4IB4dMFC7rUTIZFxKu6hghHbCYJm87rn7N75G/NJr6PEUCaVrzWtnFe7Etq2GXeYIlSUdC99Tt/2/igmUvLjUwHZmUJi0PXSqi1GEvaC8bLsPZvt/i0jt47wQfKhLmc1UmUmqmKOkzGkXvvcjcXbwezfG7uIaCpMuIrvxCPvzSI32QB03VMbagGIUmBNjB2NpqRSJoA0hdOU8sSW0M9rJnOnRhP7ajOmvvYKvNuR7j2FVBgJukvHhjx+QN2V2eRAnNB15SPi6pzs8Ylw8LjPHMDSnIhJoFPGEDX0Z8ZtHtFTYKgQ3ohlJrEzmACSNHE46Xrx1m0loCudhXuaiaYkexVGVElRUSh7peV9bDyHubm/lEioS2gsMhIM28tW33+bP332X1UdrUoXc7nn/zKUuXGGHkspDiZN56YU+Py9qKKvEpFelGZWQjIqRCxdju6YZCnF0ntj1kdeScVGIOUgb0Okhw7nho+GULxVIQ4/M5sj8iPHeAxqkKOCSQRfJ24Hw5Iz0+JSz9il3Xn6D7fk5Q2hI2wVRyhcfuCrDvY/LWhhK1HcqCZxLKa1wGgnVIhkuw+q0TJOpkckzNPND9CtvsP7T9yq525YJpl4HiFSegO3I+IMHzF5/kQe/9y2WDz7h+K3XefLhQ8KQC2LxQpza2NfRy9VCtdjJ5QB7Sct9ycvsHtiuATxXw4a9dyyjSz9v7ufukJc0qtScsT6oqxexM8RLR1IpdcrCoO1/9n1YO1K7dm2Fg4P9N2a4F6mgUYYPBOlwKflracooUSTErjTzawSPuHZomIALk+vXiPND8qJnMCuyxr4nP10iZ1tC02BRsE2Pbbek1RpJIxojWaywkust/WpNPJjgzxb4UEskOSGWipF71Y5bMeq0HWlv3oCjm/jDT7DNSJJENmM6mfHFV17jCy+9wrRtKyQONFp5AWp/7t6vFfi64zVVlViFJI4UaWyFkCKZHL3wDBJ54cYNXrp1h/sPP2XoU5kFa9RBfmUKx+75FWNWdDJjHJ3u+JAmOeNyXUnHuE+6BKBtkDYUgc+Y67BAr9flhYLekWI5IyocTKbcPLnDJ08+ph/6MsuLpoyfcq+TPcuYYVImV3lyHh0bRoI49vQxOplBbnn8/vcLysi7EUaGZ9D5DOt7GHo8tjRNQx4SzfQA2/ZFRzD2tbTkeAg1Upby6y4FwRyfTEg/eYw+XlGnBxK0wcc6GJNSeXB10kcfgQwMR0fM3niJ5Y/vIbmw7IX9FiR4mf9eAH5VOAYuNVdeNehdXnrZsh0vhW2VK68V1q5MTAy6a7Cu1TOv0btSXtSOkl0yX4nR53L0C/i023ZGXzxZqL6vML5VHlLXrZD7TRkgJ6G+WHqURQMuZaxQ0Zm0SCisYt4OBG1xbQsJFlsIAY0tOYPkDLMI1zvagynbT58hZ2v8oINOGBcbGAZkNRCHjCFkLaimLBZDNgO2HYjTlrzZlrw5RnwYCNePyA8fE3I1EHeiCHmxINy+DjePyfdKVDdzrl+7xluvvs6t+RGhsB2gkW1KWO4rynF015pX76VWMtEwhpRq7hxxN2IMhNgRBZyeYVPECy/cvs3bb7zBuz98j+XYV+qiKco8FI2UspBdVpwp026KxgkbOSdEKhsLnmOB7TGU5WggbYvsyl1eWOQLztawLLXFFTb9iodPPmZ+eISkLevTx3VYfkA8YxKKMU/KUH7PAx4iFrQQdvWLAoI73i/J2qFNR0TJYYKnbVm/uVxHrgSkawBVRhtLdSClKkpyQg0mLqUupM2MMG0xSWgUwmTC+pNTVJtiRyHQhEgyKofi7BplUGd7/xGEM+T+I3zTE2LAUwIXJETYo2eBHZFbu4Yvtw3/XJb7p0pL5LkpI5cOJW2Dj+MFdOKidi12Ab8/97CUPNtqFJDKnl6c9moh3R0CHSEWj44WCO2AxgkmTR0tRPGQFC2tSgBtSgkjTMqM5tiWPKkpddP2i3fgizcYP31axg7VNsC86WG1wc6WRYE06Qg1t1QN2DiQsxMBHxIpJWY3rrFeLLC+R8UZHz9BcpkZphLK4iDjecQePKR55Rb28ACWW0SE48Mj7t65QxMbtkPi+3/+F3zy+CHnyxWKMZ1OmU6n3Lp+wosv3uHayTFNbAhR9uWlZIUdsyycnZ2TUrk2kUCMLdO2BXOmkxkvv/QSk8kEXS+wNCKxhdq9RjZi0yE5YDYUFn+7pZmM9KenWL8tww+1Ro+dxLSJ4KVpxDTU7/oq5bh9xUMv5oRrNykTXfNISlu2wwaVQEBLjbyWNWkmtEeHDD6UWdkiaGyIB1Pys0XlVMCG8u0dtJEQSvlVY0Smh6T1GjdBJwdoLtyOxUDOAtstEsr6CrUkmikpz26Nt6/cRWYd/eoU63v6syWy6mv5zJFuSqqNMPuFXpjFQlqKISR81e/TTncvpbwY8T5fvNdrqlNW+cX3iV2xwpocXRGC1FAqTtHSUogKv7TDTihy+eukbBhrzrrTRkOcTBlzxvLwGQ9xdda2orEjpFRyDQ1lUkS+3Eq263v2QpwJlOH1Wj9SLAP4pwewHgo0iYpLxKT0RgtNrTE3SGzRdoK0LaFrkQbibIaezOlXGwaFMWS0KT7AlwO63KJjmX2dLUMMSCijfHXIhKBo25I3Gd8OrOwZ4WhG3q5xoNEiHzSvM52lyAjNHXrn9d/6Ok82f8XZuw/QpuX68QnHB4eAsV4XYu3urTvcuWGcLRY8OH3Cg6enfHDvHnc/ecibr7/KC3duMpt1NE1R7W22PR8/eMR73/8hjx49Zr1aEUIkhIam6Tg5POJXfumXuH3jNjdOrhUNP1CmtsbCytbvpLKhaKlVJwWVeGbz9CkaYxkdxBQPtda63paF4Q5Nh9SvALIAdBNCNyWvFuxm7rgoAcPygOw5GcNsCzR7dFe+gWPXoplJy1XpMMtg/UjOTogteC4sulQoP2zovXzNDmPCJBTUsOkJlgmTluF8jYdA006wvCmG7IIFwVMNjarEIMjNa+TjKcOTZ+XLGNYL/Omz4tB2NlX77XflPnbfFbfTZ1jlGawMq3QNZCLxYEpzPGd4do5vKAMxdl8MuDOkSzXhS2FVkX3ee8nYPvPK1di6n4W9+638P5y9yY/l2XXn97nTb3hjRGTkWDNZKlFkkZQoNilLsmBDlgx0L4x2A2obaBht98YLAwYM/xXeeuWFYS96YXjhtuVedLdbNNDWAIlqTiWyyKoia8rKMcY3/YY7eXHue5lVLAGGk8hiIjIypvc7957zPd+hUDNVaZGRUyz0I9o6giq38GduWgr0pY0hB6EWsmeTZSR650B02Q8IRYqW86Gll9+GpJ3sQlUhWhQOuNa6IOFSyMZN0M5imxpV1+JWYhPm9Tv4iSM+fYpuDG5eoxWE9VZYYKVNFmKgxmdVtMcJXTmSSuLcmUFZDSngtzuakyXD1TWkUF5cnuEDUQg+yjmutlu+dO8l3v3wPa52HSeLJbN2QmUMt2+ccOv4iJQ84zjydD1leXrEUAT1se+5uDinrS11dQNnDTFEVqs1jx4/ZvSe45MTXnjxRU5Pb3C8PEZrw/XlFdvdjmHWi8jDWsEorENXNVm15F0S5LUsX3Mqfqs6oZUTMgiCZKUxIKQMfZjrc4gkrdHWlZ93S6pbksmoHDExk7Y73PERMYxwWbYCWpFyEHdQpTF1g2qnpBCI3UDsepyWr0lVlbTyxVU2lUtIMIsMOeIWLXEzop0h+1j0yZHQ9zBr0TeXYiE8RqiEamqcQ1cWYpIwivmU4MB95TWW1OyOjumHHemj+xi9P4qKFDI/NzsLGxyV9Z5sdiCuiLYbEexMK8ziWIQlSpEqI8lUh654X6Ofp7b67AD9mdrduw4q9GFXvF+mozhc+/tP9XywnKw6AlaLtljF/bCfMXUjANHoZapIUsGpzAayJ5YTUR0YDfuvStY0+8Mha/ktLpXygzTOQTaikDFyxeZspIWsa6gtrmowbYNylqAik197iX6i8dfX6EqJe+RebTYOpK4nx0RwRnTPRmNCkoiXtmQSdTtBQ2uNyY7kE6kbCGOgmsyElpgCYZSUR41FF0qjH0d+5fyS/+4f/gP+J+P5X/7Vn3B6fELrLI3VjClwdXbGT9/5CW+98x5Xw8jj6xXaWX7zzS/zja98pYBdCbJHKUnlyDFyY3mE0ZafvvMeP//4Y9qPW772+hv8+q9+iRePT/Ci3qNtW44XC9wDRVtPGMwRu2hEWKA0hEHUQHvH1qxA7UeOATVfolLAJGlPJYESSBntFLhKVjltI2YRk5L1tFqjq4phvZE2XMnNroyTQqgdsR9wsyleS+SNLgkoKiU5zOuGrBLJj+h96ELJYkvISOcvrwQY9WLzo7RYJFVNjb9coWczzAt3JETh0RMYe1IGO5szdjvoOvEoUw3Du/eZH91mcrSkW19Sn9wgPHqMQmZgozWqcng/yPrJWlIoa7kyYuT9fFw0DMpqUtTEzRrV9WTEhVa5FqVGQvDSPZMP68FPFfShev+24fawKpLbROU9lTUc1gsHx09XS0zpnoBSQKmYpEXO6Rkolob+YAVkjSxpUlmRpD2hJO8XU6q08vIF5cMKTcghCgvKobUjqr3Io7yY+5lZV1TVBHQNTYN2BtPW2LYlGjDTljh1eCQ7OfuASrI/DLuefL1FKUU9aQgqw7TMZ9se51qyT3JA2RqTvSRd9kEIDoVZNPSeatIQN2uhoxqD1UqAJqeJYeTF2PHh33yP7fWG5XLBYj5HZzGPVzny3rtv81f/9q/RsyV3XnqZH73//3Dn3j28z7z7zrt8+cu/Ru0s07ZmMqnpOwqQk/jF+x/yk3d/zgePHnP79m0e3X/IT773ff7uf/AH3LlzB+UaKmNZtBNuHh3zX/7jf8I//eO3eOu9p4LwJ8Pixg2G7Zqx24hTyQHlzeKoyQpCwpc2MymR4apcdMgFNVdosEZywcaBaIqoJ+xzowoCPgayVfgxiuFEDDCKC2oeurIr12AtMWbpjigKppxxixljjFA09bIOCihtishICartR6qjI4KrMJMJoe+wGbJzhM6jhozuI/gM40AYAnkI7OyCNmhy7wmxWHZlGUnzc6CyUqqMFnKv2mcrmwNSTspkXzzjUxRugjJCvCnFr7QR8gkUA8lfKuj/D7/2F6R6dk1mJTvQg7c2SgTpnxFh7JeYYndrDztnufml9Uh534pLe2LbuUTN7FML2bfpZYbQEiYGRuauZgJJidm9NmgsyQe0LWQTIwR3XAW2QlcOU1n0pCE1llQp6l+5R2rBPLqCmMjLCSEG7JBQMTMmufXTpKK6PWfc7YCMuTkh9ZH4/lPSdodxBmpH7nqyFc6uLt+rAUI/8MIrr1AHxcXlJd12AyahrUKHkadXW7JqiMOO1198hXnTAhlnDe1yzm986ze48eJtLq7XZF1Rm99jcXzMvGnQBKyVNZWzhvlsTgoZ5xzDOFBXlm/+xm/QvPsuX/vqV2ly5oO33+bDjz7g1VdewFhDpTSVcRxXLS8b+M3Xb/Gjnz86jC8hZOzpKXQt/ul5YS7IBkJnUJsNyjoSBlNXws8PsoaSWVZytpTW6LYE1MVALqoyqwxiK1T20lZYfGo+IW13pMtzrLZycytLjiUAMWRIEecM1ekxw9kFpMi43QnrTJWYn5RJiB+bzgpnLCyn5BRJswlmuUTdOSV//IDUWFQ0uGWNj2LFm6xGhXJpbXb0sxXBBHK/Q12t5BndJ5BkxHetXHwoVRI1MjmFfS0/+5XLtiJH8fRWBiaOOA7oANnUkLyAaIWd9v+voEthigl6fm6mf7YjlldVlCniiLjfIe+/1ix2rymWsUpWXcYK+SOFKGsZpWX3l0RiZg7odUHXER+wfGi7C7CxlycmoYBaVYkjZ1WTkkMbEdzrpsZWDtPUqFlDqhX16YxgAsO2J42DrCqUJ/c9/mKHCulg5TPWmfGGFbBkPiGajH/nIToOVItWCCKXOxhFxG5cJYgqGhVGQh/IIVCd3mK4uka3E1xl6K4lxOzH7z1i+3du8fu//W3urwaqcsobo3HGcPvuLSbzCavVmt1u4OV7pwXZt7iqwmjNpLLUdY2pa7Q2zKZTXnn5RZbHC7pu5CtvvEbOGZcVv/sbX+fmjSNmsyl9Jy4YL57e4tRamjByfrkSU0ElXm392KEuevAR2y6I/UZuaGR1h0rk5KUr8ZLKoo0imZLGidwyyQfGcUQAoUj2Ede04rqay7yYAxlP1iKuUVVNHIeSjGlQpiEHTyTImjVFwBI2O5SpIA1Yckl9ySS9L6CMiTK35tGTNjtJJrEGs1SM6x3V6TH+4RNx2SyWxrQV+boTooiG+mSBX18T19cYH1F1RVJR5t0kprxuPiFsNqSYJAM7PmeZVcIIcuHLa2NBZXIIUkPRwzYI6KstSmWCBBgXzv7nJGfIR1bPkDP2s/BzmHZ+5g+s8zPg6zDfQin0MkUrxV4W9uxjyOxg9u3X/pxIh014ORQye4cGFChjCuIuoJfKGjeZEwYvFrKAzhrtqgNXVhmLcQ7VTlFVixoS9Y1johLDeNvWuOWU3BiYOfTpnLS6ht0OM7FQa8Y4kK9XMAaMrfHWYIwmzyyLL94lffsN1o8eUH90RtIR++ocqyzj+2com6m+cA+7jaTVQNiv4jRM65br9Y6r7mPMRPy4xrGT7ibBo+sdP7+E/+jbX+HD73yHvDguZ6Vwn501LOZTmtoRQmYMowBS2hyQUwDjGkBjbMV0MmE6m7BcztlutigU1jombcO0ndJUVtadOeBHzyv37vDqV9/AUfOj959ircHVkmc9bnYYYyB4MLLLjykU0kmhPmQgDChtgSA3KQadE9pZZMT3+KsVuqrEzjdklKnIar91KUy3LMWq60oSOkcvxZsV+L7wrAtDUWvp5oYRV7eMQdxgDr2dUpi2wfc9IXmcsTjXMPYDMSeST8T+E9Q4EpoKvYukkAl799FhLOOTCFyUq0WTH4NoBwQtpDyI4CNptUXnwni0TjzOijNK9CUoEiSMLxdyjRDbpSNAOlJjHK7R5C6Sh32Vfm5yCv+rwQAAIABJREFUxrOiPhQfufCv9yQFS8xRnDbYN93PFfNzxwAF3VPPPVz7v815P0uXeQHAyWkNkhRR+EzsVw1mMiFsh9LCJNxsKvm7kvGKdRWYupABBXjQrpb43aTIPmOqWtZijcO0NW4xg9aITvnOKZt+jc4eVWvSTItz48eXaO+ZL+eM/UhaTgg5YU8q/Kszqi+9wXx3h92ffxe7ADux4BNptUI92sG0pv7yHcb3nxLOrsl9AAymalEe0nZH6DuiHxjXa5TRtKcn9H3Hd98/5z/+va8y7Hb4rsN7T87le0BTGYWdSEJF5R17B8n9wbuf5WKGnDXOOpwzTJoJ88kEDTgrDqjGGEzKhOghR9bbDX4cWcym/PAXZ3xysaGyFt/3qFyhnQgHsoKASEWF2ihPzh4oyzmKPlw7GY9SOpw3wY9oApWqSSqQfGk/yyxM4aEfPmKMZK1wN2/Qn1+Jcs05VPTEPsrNBpA1MSd0yuQkb88hFiqysMdSEFptJMlhiBCRLOIQmwYPjy9xt0+Jdc3oR5rjJXG7k+faNhJOH0bipscEca2NSpOieItr7YjZy8xcrLbEWVZAQnWQDeZnVVMIK2TIWqifKcoOX1nx7+5DCbk3UXT+/nPWVntgqvz0Dh9c7Ve+UomyVvmcZdZepijcXrml87NjoRTonowiGmettehTQRg4z7Xue49j2dkZ/G5kLzwALahx9FBUQyJkt+J9pQtQlsrMaiu0rSTPaNrCxKKrGtfWpFqjZg2x1rAW03t7c0b1u19kc/aE8N59zHLGEDJjX5D4RlN/7WVGG1n9r/87zZ2buG+9QfjoAet/+X1qV8Gv3CBde3h4zaa2MMmYN06p5xPYdFRnA+GRFOm460lE6pMjmvmUcbtGOc17lz27ZHn9C6+x6SK7wTP6jAtQ2X32sRy4rhbD+r7vGPsBlTPtfAlNw6AUGFNokQFtLZVzWCMtmzZG3EFSKMoquLpYURvNfLHkr3/xNwzdQNXUssrqBGUmZ3zSxSXmmYorJyVjzqQlXJ4XDMWiXCMaa5KQNUKQ9WHWaB/Ya4li8BijwWrh18eePASIEtwXKiesvrEHa8jaCTPNlPHOVKjQC9/dmqI6K5zvQmIRRZcUVEpRbssoWE5W8jPRY8L4jLl3E7VuiKu1AGhJkGg/epIyuFDMCawlxIh1FbEbn+EGSj0TeUCJZSoS3kJTFRZkOtglU0IjiZLGIq22hkphciQrS9QjJosd8y8V9N5j68APyc9d1of9teyH9yunPfCVs5D95R0jBwr24WM9fwJlshInxqTFytZUDu0TMYNuW5KV/GBV1mEqm+If9gxoIxRNIBoznaCXx6ggtkh0suPDVmTtqNpWUg5vLwgGKm2pFlOY1NBa1KwlXa9BJdLEkaawfe899Ikj352irj3Dk448cVBl7NKSjyrGjx6jn1xj790iXK/p/vn3sT97jP7SS8TTGfa4RUUL657JF045ev0Oizdewv7kAy7fOePxBxcMvkcVs/vkMrurK1K3xd1ccDmt+eDiije/8gYPn1yz3m5ZLibYwZEN1FZIoLqw6ULZNQcfuHXrJnXTFikoQj/dKq6vL6jqmtl8ga4qQMyKcxT3lxAiuy4wdAMv3L5F3c75yUcXAjI6i4qZbC3eKMxz3HlTGXKE6Adc25IjjOudrLFyFBS5btE5EEv4ua4c9vQm/dMrTOUw8ykqZAkxsGJkL2OdpWkrkdP2ifzgAts0hBxRfV8om4YYkmAl0ZPGXjqWAUzdom0lIF2/K3zxfHjOdUroSpG8XEYxiFWyDgn/yWP0jTnpeov2XmbgJHhA1o5qeSRGglaTg6eeGvxqjcli/KCVFZEKgBEdc4oB5yT2iCoJqabIjSXSWS4yVVwzMok4bMlWiFAxBzSZuqrw3W6fwfiZglbPaZUPRfz8TZwPb9pLx+TffVaBKX3//otTurgXfmYrpsp7amuFkqjLNzsOYmmjxRpT/LGFvLFvKZWR9dQe3cvtBFM1+O1Obv6kD1+6qZxEsGjRX7m6wk4nVIsF0Shonfx/TmSrqF45odteEH94n/rNO8RbE/TqElVpkjEwM6gXF+iX78HFUxZ/9Hvo2yf4f/6X1FcJkkZNHTiNsTKrB6t484uv8uYf/BYPf/IeyrRcbCUI3M4n4sYyDIQLoU22X7xLP684X+/4q1884Lf+vS+RouJqG+i6HucMmIxODshoK/zjzfWK9WrDndt3yBjOHz6hXm2ppg05JJx1TJdHPH38iJQzR8bgnCNn8SmPPtAPkevrNae3ltxctPzg3fv84uG12Aj14ieGMcT1huxc6ZfEkohUDusYOfRxZfsBmdh3qOWMuA3oKOq+8ckZKiSULQCPBlc54X3vNCl4wGJmc9QQqQbF5vKKPC3dWmlX8z71xYtzi0oJW7XgSt7YGNCNQy0WgonsM6iyXDJh2KFVU3CFIrpIGRU89rIjqRK+UPjdKYzUsxlBWZjWctkpw7hdo4OQaULWJJWxbUtOoZhvOBkn0NTzI3arJ7IrV0JFFfFF6XYOKsEkNOIUxGeg0uBj8VlXQqH9bEEntS8y9Zk63oNd8juXliWXQ+DT7ywFLbN8gdOL3nj/w3uGUstC3TW17NbG+Bywpthrew/eYs9kRCQkBlYp8eEyxjGsOrSy4maSFTlbjLaCmM5q7OkS5lOMc7RHR2RXCcDRWvL6kphG7LHDH2WGDy9RA8TNQBo9VmnSrJLwsTsTmn/317j8tz8h/F9vc/XdD2m/cAe+/zHq0Y48KNgMJGtIReShJxXv3n/Ae9/5N1z++H3S4yvS/RWTGzPQBn+xYby6Io0d7vYJYT4BElVy/OsfPOAPfuUeoduy6UYm0xmu6zE2i02wyuAVwzCwXm8gw+MHD/nBD37AwweP+cM//A9pJhPefec9Kmd440tvkLJis+uwdkdbN2gghMDoA+vtwHqzZTmtcc7yT//Fn9NphZ3UkCK5E3dUFcVTS2vxy0ohFcp2AUsVuPlUmHU5CEymIjZmXNaC6mZZMSmtiTmWcDcJ6wsxyW2UoogXdCINW/rdFVpBffsl8pWBJ+fPpL1osaGKgYzGnJyg51PCGMUyeXWNdQa1WJJWV6QUMZX4nqkUUcZDtmJGocu1lWQEyGZPcBIxjWkE/MpaE3xE54zGYLVDqxFlK6ZHS4bzxzhtGMIgnczJLVTV4K/PCAjQqoYR5RyZQE4eTVHNmdKiJ1UwiYROJarJFCZaNgQ+B+X+vNJkX7T5uXaAw938/Hs9K2etMNqIYB1paZ5fsh0OgfKmFMQA8FkTxIG1JisoGWr20SFQfAzgQLrXqkKVnGWlq2Isp2U+S0LUV7eWmKqmNg2mkbY+VpqYRoJKJJ1hXuNevYP67s+wrUNNK+IHFwxJMrqqV5bY33mdyz/9IfE771KPoD5Y0/3VAzAZ0w1gLc10zrjeEbcjMYCbtKzWI7z7gOHxCnPe09xYopSl/+SScHEBfqS5e0p65ZTUeXQ34oaRD13Lf/Y//Anq6pq/99uv84/vvUg/DDhbDlcjSRJd35O0YTJv6TYrXnr5RSbTKY+fPsHVE4YohwEaFvMjrldrunEEbUTlVW7n7c5ztd7w8r0j/uytj/jTt+6Tq5qktYgrxhJ/mkF5kf9pbQ463YMkM4pftNZi4j9qOeCTD9impr4xJ2y2uOmMNERCW0NdCUHpZE5+cIZpGvJsQk4epTLtzSPCdoeuHMOmB9OQqhbtO9CK5vYJ/tE52TiIEFYbmVEHj66chOdFUJOatDiCzYZcVbTUxKEj5oLnhCgOn1qLUktFoQwbQ/BCRnFti8/AMIpHXEzkYcQ6g6mnjGOHjlILoeuBiLE10WTy1RX1rXvESU3+xXvlolSipQ8ig81Zi+pPPXPFlfoTEFh8yHKJf/4cppjK8EtodbmR1eF/h2o7FOd+n8eh+eIAcP3SCaEKyqdUkVkqtKuIw0g2BQEFCVfXe9h+z31VhwA5pfZZVVLwqdBRDZoUwDpHSKBdBcZibYOKoJOmWsygqkSX22ri5YqkM3reElOk26zJ0VPfWdBfbLBJdtHcbFFfOeXqOz9C/dl7VMEKsd8HGEZy9MSccIsG7SbYqx26T4SQGD4+g+yxNysW95a4X7vL8PEV/U+f4i8vUSbRfvkl9K+e0l91qMcr/NkFKibc3WNWDx6SuszPHl3Te5mfzChCAYIEAYYk0sx2NmO+XHJy8xavxcD15RWg+dJX36CqK5q6IcTEbhjZdj0RRaUN0Uc2m5HNrud/+9Mf8b13PqEfa7JrUX4gFVP37CyEiGlakfeFURxAlZbisYKLqJxw1pKblrjZ4qwQilJpWYOxmPmM7GpsY7A3j9hut8R1B08uIQRCP6Ksg+TRMRC6XTEGzKSnF6i6EVtkW5GNYvfoKVZp8fSykJzG1mIXnIcOgzhqpo0n1xWqqqAb8WokW0MKCJkjZ9HOs48MFrbZHhgyKJytGZMnrzYyVkWPJjNuR6DYa6yvBIjUmZDATSS2KI2KsN2S+g3aKlL2qKylHTdOvAOSIzcTtEqwWQkdlCKMysglZ0WMdLAE4zMzNOWddWUFkfPhl1rwfeKjFKMTn2ZVZurnvum8//Nzs7NWe951MUvLmeRFG4oW4vnBwbMcAHvJp0xc0stlSpokkjksNjkJlKDcdjoV29i2xjQNxhl01kymS6rJlFElss6MQweVwilDthHmms0P38VVBv3SEfGHH2Gcppo2mN9+jbM/+xnqrx+hkmhVcwjSnoUo7hgpwjjizzeEj64wgyePgbTrqCeGe9/6Ks1LNwhXa85++ojt03NMDtjX72J/8wt0T58wfPAQ83iL8h7TONLjS+qqJiTFg7Mdq21HvbCEYNh1AyEGfIxC1FFgbMWkaRg3Pf7qipPFnERmvLjC3bqJzzD4xBhgvd6y6wYmzYTkE7vtyOV6w/d/9gnvP9oymSlcW2P6KC4s5TB2k4rUedRiTl6vycNQXl85Zs1yTlxtiOstyVhpt8eAZAQ6kvfYccScLOnOL2BSo3uL1Qo9a0j9SBojVgsyn70wNKLVpCHA+OxWVEUIs+cTp7R33tG4piKtt7JmLTlYEDFjwDqHqPgjPkPVtKTNlli8snPZBZvKClurrG+NNti6oR89cb2hUgp8wiJZ4tWkkRl71x2EKxpErNH3qG5DUpq426Bnk4JMibtLLIQs0Lh2gn31ZXaPPoFVfKZj2ru7kIv3uPlUfX7OHrq03+nZ0qnYf5RCPpQ2MZSoUmBSLxn9IOSCT9E+y8fRiDE+xQ8b0JNaolVygqhFuJH2BoXSE2jjUFEXYn3xAiuSSZUUxtZiuasgKkNCEzqPaVvs8RylLdXRDLOc4xZzkqtAR7LyxNWWqD1pmqAJ7Lod+p1H1F9/getHZ5iYyDMHv3aHy796l+rHj0FlUg7YeYWdLRmfXhEfdeWhyajlhP6Tc8z5Drec4VcrwrrHJI/Lit3lNeGdB4SnK+yiITUGf1wz3H9I/PEH5EdrUBJxW339iwxPV6TrLRbF+XrknfM1txbHxGK+bowi5MTQ9XzwwQekqzXTLqLOrjDDjtnJgqwM2QfsjROal19m11ZQWxaLBUopgg/4QcT9Hz444+HTa1xOjMOa7A3aGpqTGaMfSd1A7L3swrseZRzKyRGck0c5S+wHsbVUxTva6MIIjCKYaBphQHUeZay07udXUNfYOyckPSF1I2H0MAiqjDVgHQwi2zRwGDeEjaixdYPOmlg51GSCnZ8Qdz0pJmK/E4Wc1mgVCH1HzrITVzES1qvnTXakRnIiDT0KS04DVJVooYMndT06Z0KWVEuCiI/CMAjFNKViDGHQWkaQNIzofiAkGVPi9QobI1FV7HO7VM6401Oiq9m+8w557NHm4NVTmGTFDTVFkt9Llf+2goaD/e4epRQP5mfFKTd1PrxoQr2s0DoVM/v97P3sY+q9d9dzKy2xDSrtWkZcMZMuzX25jeMzBpkpSqqsi2ODNuJmkiEZi1EWkxW5sti2gQxuNsEdL5kcn2CmEwatwGjidkeII0kHiWu5PSX9xftMbh4RK4s625Frh73RsHv4FPPBhRjxjx3TL98hvnIDbzR2dxf15z8Db+TWKJlG3FQMMWFefpXqPUt/seXDt+8TT2vGdz/BYVDLFnXniO7sEt5/Qr0eZe43CrWYoo8XDB8+Qo09Rin8MPDdt97n33lliY4Bay1NXdNOa5ZHS27dPuXJD98mvfMRPsMuJlaPz2VOtpaqH0mrLfNvvMnRvReYTKfEmNmsdsQY0Si++7MP2IyR2opDh1YRPT9inNToTcLGXl7Aykn0atOQrCP0A0Yh41MW9NlOJ4QcZcVoymuMEgmlUWwuLrHzlhwzxk1IYyDePydGBEAylqzKLRw8ph8PN86eoJGzxMeIl1BEL5dEV6FmM9BOnGLqSlD0kCRjLBaJ6ziIQMTWpKEr19Rzz2wWqSgqC5MrBhFaDPvKl2czDANW60J9fWY8IF+nrO1SWfeO2x16OiVsNmL0oIQBRkhoo9E3buCB/Pghtriepuc+l6Dh4iJ0QMOfc/38DPWTEoxVumctJ0IWnshzyypKAn2xG8qZTXfGQUpX/nuw2VVy7GUcEFE5CEhhNHkn7cQeO1O2PiRlqCx6XBml9xZDRk5MSnyItUXVJR/fWiv0wNqhGoOe19SLOc38iKAUxilijsTdluS3pLkm1pnN9+/TjBn9xRusP3xKZRqxo727ZPjrd6mCtOTtt99gu9uy/Yu3qO6vaF96EXvnFrFyDJdrVL8l1xXp7Q+wKotKKAHOks7WhPc+Im92jDHRvnKX8HSF+sVTTOdRxlE1DdoYxjGyeesd8sUlehzJGrTK/OAnH/LRt7/Ay6cTlJJ9qFMVVVOxmM9Z/tZvsjq9xe7H7xGvr6jbloQIaOrjY+ZffoPpG68RVWS33eL7gXEU7+lPzlf85U8+lCKNHpOy8O62PWFVRP5GzPGy9+LG0Q/FJMKSQsASJadJJVFElUN4v9kQ5DjKCkcp1OAxJ3OG4MnbHmcbdFVjtWbIHqVz2RsnqASQy0R8CCWQIaBNJeYQMTKeXZJdje486e5NtBHlla0c7tYpatLA03OG1QqyYjI5JRlNNzwUFLk85AYxT8AalHWEoZconwhaa3RV0w+dGD8qimtqPtzwucgg5fzRaK0xWUIPq3bGgCYlL8y8qHHtFHcyp19vyKtrlIqiTivbIdBY2xBCJ2CwSmIa0o9/G5f72bX9bCUlb5c/Pn92lb9RzxVt+fcy24bD2/ftQNSF9J4hh1jULunZza/FOdFWFp+jTB5KfJ3lcxUmmlKHz6e0FUAsaazWYiPrnFAZqwozn1EdH1EfH5Fah/dB9LRXa2IORJeoX73BuruGj86ov/Uy49U11SoSPeQw4F75FSZHp7C5Il2vuX77AelP3ma6U6gR4lv3hV3VGuxrd9BfuMP48weY9VZ24o8vyLOWXFeMTy/QHz7EjJ76tXuo0wX86CPskEST7SwpJGLXE+NIvAjY4tSZi5jl0fmWf/XdD/hHv/8lQtyRC9c3mkAwXhD9l+5CZekfPaEbPSpn5kdL7It3MXfvMJIYellPba43jKPHYPnXf/lDPrl/RjVbkOqak9NbrC8uyVZTDQOVbRjHXm6EuF8z5sLOLb7ROWOcxmvAi3WR2tv5KoQEgvhaG2vJSjGutlRtg5rN8J1HdwN+/2+0xoz5AGjlnLE3jghPL2XVBOgsxhDZR0xKpLAj9j3JB9ztE6KzQvfseprZhPobb2J++hHrxx+x3l4J+0uJdFdbh2rcQUACihyCPLeDsBUTClvNMH4Un7Hy+KckbpzaVvgYUAH2Ae9khbGO1rSooBirmjTIrN+enBCMZndxhu7Gcplp0eWpUidQvPsM1k0FM2kbAeyeC714Rv3Uz6JmpID2hS2nzbOcd/FsEj2rOgTHKeRFlWgPcVMUcEGUU0LQj6QcQFnsbInvNnJjo8lZWugYhLCurKxC8l7LjCZri6mn4iIBB32z0pI/pIsxnKkb7HRKfXRMe3wizhJmf7BExtAx+I7q7oxRjYxvf8jk9gnhuCZ9vMEoy3h1jRoDm+98j6HSjA+ewtsPqO6vqXRDGnucqYg5CjjRR3jvIelsBY/P0SmRlMLMJuTllPzxI8zltTzMzRR7tGT76ALlPe2dE05euMvV+5/QnV2g+0HavKoiKoXGo7KhshVRZf7vHz3g21+9x5dO5YT2VUXVNPiYcNowaWu4fQMWE0KZsWzTYmcSXOfHgWEY2G53dJ20mj/75Al//G/ewhiFUp7sBy6vnpLHIBFBp0f0Dy/QKKr5nHG3ObiWkhN2MhWjPqXwoxdfbSUCGW2dqOaMgm0vCSZKxLBpjOLwqjyuadApk7z4Z6kku2mMQykheTSmYbzo0EmjCWhXFW9xAU5TuXwyAbO6JvlewNYUGS4uCBeX9Ks10WexnppAHgaO53cIPrK+fCS7fWclUDBEaemTQSPa5Jgi3fW5rLLKXXcYRzPSlmdxJdFaPNyS1gxhZPAX0CvspCEOI9XNEzGY/OQRJo4FzS6HWfIHgDgDKQsAHf2WDITzHUql57bQn91Dl4S+PY52YHs9r96h8Kz3uolnIy6kTEjdc6kMpf3WQhFJUV58rYzYvMYkc3XZOSsthAM3bQkxkp8jnYsc0xzacfliikm9sRgrMS+msqjKYSYt1WJOs1xQzSbEocdWFbvtWrKRTCYvLdvv/xx34Wm+co/1T55gY4VXIsZ3VSb/7Bz3+IpmG+BqJKmKUELk9wqZjMQPtXdPCWOP3fWgFdUrd8j3bpAenOE2fSFQZMzRjHDdobsO88W7qMWEVdfT7zaoENBTh6mqgzUO7YI0epqTU2LOnJ+f872fn/H6ycvgA30/YKua1lYih3SOo0pa8P22QSuxX4ox4YOn73v6vieEQEzwL//ib7jcJIy1pDGiUyCO1+iqIQwjsR8F8R4F5Nrz8+XrDHhfbHLKeIbWuEmLUjVV09CtrsjDKAmKRhNHj4oRa2xh92V8P4hUMAR5TdsW342iaU9RjDkV8jUSxeo2yGsREJKINjVjt8GQ5ULoPNqWIVCLSjCfX5O0tP92viAN5+yGjhAz7tYJY9+RuqGA4iOoYvUMHLz3Sr0ok8UyS+/TTBWqG0T0YsQ8oa4qxpyZVTOGbkvXrdAJqpMlfls+l1bkbDCVk3l+r9RiDw9TRiddPpcWcDfJGvOXb2iEEKDLousZcvbpZXLKz0/SHBz8jZb5Rislut8EuWQ1iQJKWhqVNbZ2QqXbeQ7gVzkYNAIQCCCSpfBUJmpL5Vo0EHUqVkNWTOm0UBCxokippi310ZzmxhH10ULeJ1gSnrHbEfsN6naLfXGB/uGAu3fCtlbkBz2ZCKsRvR4JsSeqTB5HGItgwBl0AlsbeagQEoAzjugswycXOKNlndBWqFtL0v3HuN6jrMacLMmLKf7sGpszXO5YffQYtdrhMrjFjNCIc2jKBnxAm4RqLZfXZ+QMXY5ceA11y3pzSR8jPmsShtmsxRklO2BrCk9gf+ILaBnGQLfp8MPIOA7Yeo5xC0IURp81ChCMAxKp6yAbkinBe+sde2FDHotxfAFpVF2LI4nKaGdhGAm7AClTLxbYkwW79Zq83Up+dhZqZ0LhbhzjL6/J/ZqkMrquxWMsSjZVipmx73BVK58/CTW0rmpSBu9HGCNaOyazBXkMDOOIMzV2UtONPakbIQYIGdO2ZF0JUXm7IqlMni5RY8DocnUV5Zo2GdPUjP0omEBGSDK2EoBKpUPpKYo0MmbhqGcNKbJZr9D79ZlWxH4grrY4V6EmDX69EgGJEtN/gxBLYhRKLVqRrRMldLG2Nijs59n47k1I9sywTzkofOaXtBp7NVRZ1mfx604KQUfZx9pklNHYtiV1a5LSeC8gx2eRcBmltaw9mvbghqIKqcQphVclo1eXokGRvYjOVe3QTUWznDM5PuLoxjHVvGE7DthpRX+9I/YdySSyjex8xF/vOH7tRa6f7NBJk3cjejXAZsQPA2rsUT6Q+4E8a0hDIHmPR6MqIxlHzuG+8gI+R9QnFuZiXucfn1OpGvtkLa2TNuTlFL/bkUIh+t9/QpUkoRGtic4Suh3Ke7lNYiBdj2A0xmr6fuS3v/Vl/ujv/RYuroij43qzkTD6fThgbgWw3I8ZSfynQozsdjsuzi/ZbDbEmEE5Ju2M//a/+k/48jfe5H/8n/+Y64sN1gmBI/p4KF5KZLRsMU0BgwJkKSLqmtgPchkYRdzsynNhqOczoZc+eCpEiCRJkUlrjBPXEn9+Td7u5GAeA/HxuTC2VCb5jJ02WGdRzsBG/LowhsHL95fLwNqoGlIWHbQCpyumeoZylu3mQoLXUyIbyWNWlSXmhMoRVUC+NEiONQqJ5lGJsRP30pyzZH3XFfhMokTpluc95r2dtCL4kUFF2dYoIa4orQi7Dj2R7yeEkXoyKTKIsr4qXnoma/S0IQw9aENSDox4yNuywx6Gzefc0GpfVPkzd/Knf5V6F/eEDNmUK1pB3tPUlDkU6t71MPqxyOgM1XLJcL1+rpXXB8G49PHmYGeqYkHetSYo+QKUthKMVlncyUxOKx/RJxMq1+BOFkxunLA4WeItYiWkoNtuGIctSQdwis2/+GvqWOFnE+I7Z1SjwncRvfOoXS863gBxjOXLMvi+p1WaPKuwL57Ii1xZAZq+/w52Fw7Ler0ZiT+/LwYMRqFPjxiTWNYo7yV8DaH8yf49oaY1JjgYevJ2S05RwCNrQVv0tOKf/Kd/yN1Zwu00ZtagDaw3Wy7On+KHnv5oSVVXB0cNeU013eB5+vQp52dntE3LbDZnsVgwbR163PCP/v7v8sprJ/zX/81/LwKC1sL1Tg7uctg2VSukiuBJSkFVy2N1ckywmvTJQ3mNUiKlhNEV2gogmcKIqxtSl0hYIScZg1nMSCGQ+1GA0KQS1z4mAAAgAElEQVSK+UXxHksB2zQMlyua4wV+UovaquvIXYfednLgZcja0ucdpu9RbUte93TDhiEPAthNa+LQSwu7XstONyK+ZnWLchX+8gKVPdoWrlPpwrKiQGKKlLUc9KOg/eZTo2nJtMhCmNJotEuMJXpWFdpm9qN0oj4S1wNmMhNTQKMhlaJGMAWMlX27rdCuQYcepTRawRj9Lxf0s4LdUzyf3ZqHvysVLah0MQJP5d/EItp4zoFQDgotuuQQURi0MvQrccsQ1sszhPzQ5CuJwslaC8HFGLR1xCwon8oKu5iiTSOxoymhmwZGRX3ziOb4mMXpCe2swvsOVzu2mw39IFm/rrEEa3HXAWcqwqNr1HVP3nn0xhPHHpVGbFWJ0fs4YpdT3K++hA8daQioScWgI+qlu3R/9kPMj3dU+wdSa2zbEHY9KXqyEsqpXkxJ9x8Ku6zkN+uyzkmF5pqVIXpP3vXChEJhmwpvHbEL1I3l17/5JtPNOasP38Moh9ZgLOy6ntXmmtVuTWWdFHQ5XLz3rLcd3gcmk5bpbMpiMWU2q5k0jvufPOCSxG9+802qxtL1HhfE+kkAH03KiU23xdoKYx3RKgqpnNzW6BBJdSUIeHk1c1MRkkL1PbYqN59SuLrBtDVeSzupJzWx8KJdVcvDWxhwGRiHAVPVMGlROeHPrg5RObpy6Js3iefXVCEzhB516wR1c4l66xdldNMSYpDEAkiVEEMU2OMl4eoaMNhmQtArUhwFCNbyTKs9DlSQddc25PUOncUtFBXlw2WNzhIUoUHiZUuIfNETysZCi7+3cuIwkxSiCLMOovDFc9lYaa3wMR4063nclgPG42MQsO7zCrpcgOxZnM+KvHRy5QEU/nRJxUNaYnMIoFalLcsY7XBVw+CL7C4l1KKVb3o7SHBbKfq6rvFDJ223ETZYMkIuCFlM8sVPW6GaCoJ4llkMNBYzm6B1RbU8Znb7hMWtKdSQYsYYQ+x6UlkHuWXD5qf3MX0mHjnUkMi7SNgOpF2HixCzJm47tO8xlcV9/QVWwwp7ckRKMH7vXez1FlqHvVrL/nVSo2cz0npHSFGYt6YSD+mjI0JIJSDPSLaUFk57SInsKoyzqCGifSwdjrh0xpwxMTOMgW+++Qpf+uKLxP6E1f0PmNoJvelFFGMMTZPph54YxGh+n44B0NQVxycLJo2kbMyahrqpaWqH9z1f//rXaI+PuHm05OHjLXqApIq3OmLRS0oQRkkcmbSMqw3GOfzZBXY5Q9cNOo6iw44Rv9lhj5fELqL6Eg7oHAowMYOt8ETi+UrITFWF98UVJ3uZn/efd9oybHvUbocJkSoVE72cGR6foTOMe1JU29K/cx+nFSknsfs10pbbk7kcOmdrOVC1IVc11DPGqkEdHaOeDqgcJPNKK/SkJW93VNMJ464jXgsImNFlC1Ryy7XGKiMkqZwY/VCCBQVvSTkVAUu5FJPYcYUSWJjRaNcKOg9CgkpJDi+jCpBsxMgjI6OVdb9c0J9lgn2Ktnl48/MOYxxajL+tRY8pkH1h91CS+3ohomelUUbCtdEOM5kLfzwrAbmsKf7LrUjEIjhtZCVgjASWaUMcA8oalI80t+bUx0uOb58wWdRshg41rQiXHdvNVhbwOuMriFcbjIU01fDRFaYTgbtWSqJZtzuw4setby4YK03+4UPM5FpQ2X7ABE+66sUjC6GmxmEkjV52m1qskezRgqwV4dFTcZcwuli7KtnTKrCVxh7PBT/Y7or/VBLL5U1POm2JauC/+M//LnXtoF6yfPVVrn7+Dm3THvAMazPOarwfBcG2WpDmqhItuHU0VUXTNNRVReUc223Pq9/4BrdffgmAv/P73+Sf/bPvUofIMIzUN45QjWF8fCbebq/cwX/yBLbdAcvIoyc+vYTaUL12h83PH8hDmzLhfC2e7LWFXgLlfIqkviM3NdFLmqPb4ydKsrCErxAxxmFBkj6qBjpPNhp765T+ckXebbA2E3Mm5IS7dUp2hsZVBC8zvtIaqSFFSMBshl0P4ip7vZaiH66pjMKd3sQrTbh6KkkVKYrlsjKkXXFCUVILSe0lSRLhq7TBuYahX4Mx5EOsUyaTCkFLrl6ttFhbW9Ex7G/1PbiWVSbGEixgBNFXKKJWKMTUwU5a4nNN8eGPe4aXUhVKVyW5sfzWTix+dOnfdcXzRnQgvsu5RH/kcq3vxdmoQu/UBjudSdGisEdHMJmimwafI7FqYNqSip2Os05O6z3bSBusawRRD1lAmqBwtqJqG+qTJcd3Trh9MqWxQgu0QaxgfRgIVSadOMbdNarrmbx+U+iKF1txCSGTYiCPg9xIWRNDQN+Y4R9f45Sh+vUvku8cg49koykLdyJyWLHu0VmDq9G2xUymqHlD7kasqbCzGbltiNahZgv0co67c0x1vGB8egGb7tm4oQwkRdKK/vySV1+Y8Yd/8M3Dz/y1r32dOF3SDyNN3VI1DVVlmDYN06Zl0tQsphOW8znz2YxpO2HStkzaltpZrFXs+p60OOH1b37r8HH/8He+xnh1TkgBN5/i+4Hu6Xnx6AqMD55gJg3VpMXakpbR1ujFFHdyTFqPVJOpvF6VxTqNbRztS7ehcWIdlUpGsjNC/gBiTMWc3wPxYNnj+y1jv8XZmhwzbtqSa8vQWOzdG2A11cmyAI+aPGkYPnmCDhGVDaeT2xzZBcYLv9oZB48vSCRCKTidEjoM0G/I2x329k1YHsF8Jp1ioSfnENhvahdHN3DN9DndA5ATwQ+yVlLi8OJKxI+qKmwtRJtDLnpKJRRBtP+SiZ6w04mMZUqTsy/PfotWCqdED6G1wU7mcsiWX59uuRW0pzcwMX7q1i1EF3mfnLF1zebsDBWCQP3PBYDv/+Hz8smsitBCa8K2K6g15BjldAQxRFCgqpo8maGHgJlNiWMAm7FWfJVSAZK0sfIgGStWNvMZ05s3Ob59g/nc0Mcos1IKbM8uGPyWMfaoRuM/uaQ+mTNOHePPzrAeRh/Jm56861ChqLNzEsF8a0iXG1Tv8X/5UwheWrlQHFlCLN9xpsQuyos3nWBuLMRdctvRTCeMRtZg1fKI9t5t/HpD3O0Io8fqCoKXXS6qkPvl5+93PX/09/99Tm/ceHYaW8eXf+e3+Yv/8//gWCmmbUMs0S7GaKok4Xqyp7dYU2GMxRpFCgMXV1vU4jZf+fa3DzlWCvjmN95kcTyhG6EaffHFykSymPKlBIspyVpS7wnX1zRHc8ztE4Z+wKFoTo9p64r46AxNpr1xBJOW7vq65Dxl8rRFtTVhU3jUey+4gieYSU26XqOSWBFZq4m7nlAkjubBGd4ZzI1jus2GrBRm0hIvrzC7HWMzYT6foXKk10nGgBTFTigUDzvn0FlWY2rmsNOG8XpF2q6h22HmNcEPmGwJIWLyPkRRo4Ki1g0bs0ERC2hliEl42TkECWkPgxhdWCMj156Isi+yyqGTQe063NGM7vIKOzvCbC05rOVuD4GYPYqESnvzx4jq64IHfF5BZxh2a5JWxNX2wBLb16ncHA67nJOilwd471hYWj5VTilpQgyoqlgFCa0ObaEPB4DNGNlZJyPw/2wy4+a9FwiXW57kSDW1xKxwdU3ShrAJKOtkrsoaXVfo4wX25pLjW8fcudkyqRS7Pvy/jL13tF3Zfd/32eWU217HQ8cA0ytnyBlSIxZREjtFkYoUyUvNdImrluPEdrJW4pSVWIlXiizHkVekSI7t2BEd2ZKlSBRFUSIlluEMKZIip1dgAAzw8B5eufW0XfLH79z7MKNh2f9gBnh4OO/c/dv7V74F27VMd2ccjIYyG51V6CMdeg/fTnX1gPIrV0hCq3ziArp20Iqnh9i+OA3OO1Ho0AZTyTyyaccLorPcjs9CFAfULCG7+Rh+c0BcWyJ8/kmMijhXgUrQ/R7p2irF9i6UNUZpVJKDi7gQMIMuutIonyxcOFdzxVvefCevXpH+8ioPfP+7+fxv/yYn15ZYXRoQjUfVELxGGVHRsFaQdNZYvKu4vrePXj/OA+94B2mevaqUWltb4XvediuPPXaRg+tT2ZQhsHHXXRQdS7m9i4ptk0hb7NIKyoPfOsBoSz0c0cwKsWVtHL6pmFhL1u+12nDyvnzj0OMWyaWt8HujuDXGqhLyRBDqpDKJeGI1jaSoWqGcIgmRqpmSJgm1VejlAfGVLcGWa6iqEpShMUqw/1FBVS0ySdU0cikkUubVDmnuVQ7TSYi+QbuGuqlFl0z0gokBhuNdgYoq6YVEIt7Xcoj61stKIam3b2imxcLUUf59aR76ogAtZVg1nKBQNNt76Lwnk6NwmLbT+opFAniHn+xJGfK6Aa3ATcckq2sE1YoNtOQKrZQIzS8PRAJFG6kv9CFOJcZAt7PExuoxRqPrDEcjOWXTFDdt1SOcGMgRwqKO6OU9ptVEXkiITMqCWFXiibS5hFldphpP0YXHWLGO0W1jIOvkdE5s0NlcY/PYMkdXMiSvshijmFYFTaiITU3Qiub6hNn2NmZnSupFlthMZtBIB9RACyaQTzzS6p11MrQqaULAjyvw9eKklpm84G67N50SgMlwQpIbmiwhNF5cCgcZan0F08lx4xrViA+xyTJUJ6PxHlKDK6eEkZAXVta6nDyWstrvMB5de01AyxF/5MQp3vzeD/CVT/8+2ijWegNi8FShxjsvgJaoEc37iv3xiI2738i5+x/AWHvDd5I1HA1Jkynve+8tPP/MPi++tM9wVDG8siU387a4TNZt6aOVkhS4rrHrq/jatX7PUpJYwW3R1A7V7xLGAdVCdXWWSUMpitB8KGqhHhKwGgFsxAhZQtM0rTB+S5DQ0nhSPtK4Gru8hK/bmW9wpF40wKZRGFZixROwSwOaGMQiGCWWug0oq4hevL5NnqI3lqlH+6ggPZvEJqiupZnOMK3GmDwDBCfNORUD0QmgKgaEmRWC7OU8RVdONNeUalmHIraIUsQ0E+yDNmJPXBXieIkRzL7yC+TfAt7lHa4Y/9mAXgBLYiQWBbbbw89mwkNtRBNKpbnoHI0mxLlB2GJrSeBXTcn+cJeqnomYnG8IpeCz024fNyvl9GrplDFEXGzkNAmBqixppiWqLFE6IVwbYtESxP0OoZmhjQatsKnBLHWhDKz1lzm23mM5hVHliErmd+PJlMY7fGII4wZ3cZe09pheivcivua0Wgj9G2PwTpP1OsSmoomtqZ1OManoZ2sX22BHUkdrSI4fITQNk2JG2C9FfbJRcGlPoIr9DvbMhji1HMywZUB3comkoKhrR9002ODoJ4G1zYzjJ1O6fU90Y8ajCX/0mT/ix370PzzEEN+wTp27hc4P/giPfvL30HHGWq/XUu0ExZWmlmlVMXGe29/xLlaPn/wz32O+kiRh9/ou43zCnfec4O77jvLK5QnjA82WM1y6fl0gmsGjlEBtXVmQrizR1A3ayShFqyhm6Uqh0gydpsSpdMhNqxIbrUZlQnVVQepoPZu1FY8XRFbUmDSTi2R5gCsKkl6PqCCMJnIIGxlxhuu7i/o0tLI+RgX8bNbKYWnqooa5LoD3LZtPMoZ0ZYmqqoh1jS0qKAIhKEyeYLt96umYEDy6k6OaIIdBaAUo15eppwVUDcKhVRiTykFRF6jKt3RJhOYbxZRRzfnTUTIqOrnASMdjYZ52cuJsClGhVYIUP6BbeOWNu2ER0Lrtakel8WWJHayATYgqtGI/GtsfUI6HLc1MyTPLnl5Y4gTXMHa7gAGT0WYJoA1VUYiut9JSbxiDGgyoQ2zlZEBZS3Zik+biNULV0ihrh+4YbJqhe+2HixLx8czQGfQ4dvwIJ1YzuqZiPzq00VR7Y6bXD0RBYlgQrw1R4waMRq9m+P0xeINCi5UrCoeAATyR4KO8wFGBRyxsoook60uE4UgUKJZ6ZEdWqY3IyrA3Fgrkxhpu70Bgp0fXaFyg3h7hy5pMpZCmxCQleo/VsGErNk/V9NJKMoFygms8+ztBhPJC5PHHv84Lzz3P7Xfe8bqBuL65yVs/+CG+/InfgXrE6tqgFaCIjMZTqu4y933vO+gOlr5pMANcfPlldq/vkKQZB3t7DPoDBks9Tp/e5KbYJ8mO8coL29QukuSpqJe2ilDsDjGJRjmHTVK0zanGU0wCZqlPHBeLcWdwgbWzp2BlieHL18gHfaahQUfZsG42Q6tI2hvQvekMoxcv4rUi5Bmu1QpTsWVDpR18XXKoUgDOS6amdCDMRAk0oiFESC2qaQR0FCI6tS1fANmX1PjxVDrY2uCmY3zVkJiEbGmZOngR36jl8rB5hptPOJRq61wFzP28WnmuIBmqJ7b/jpA9ovcor0i6XRmb9fto7yn399ChxsYAs1LIHhohMc1vFXWYXx0ixVrM6lzYQBUFNu/SjA7QUaM6PZxrME78hORCb8kbmHa+JrQvpUTGNQImy6VTi8d0M+KsFjx4jPjRRFBSJhVlRTw0jvFz57FRoxORc1FpAklCMykFxxsjWlls2sHmHfqryxxf67DREdB6YxQ6Gsb7M+ppQdg7IA4LTAW+jqhUEYYNceLxozEh0grIl+I2mRmR7S1kZmgOpiT9LvQS7GoPfdMxGBfE7T1M7am39/AHY0xiiWlC7KSiKDGeocoKdzASYH1qxZpmdUAksNLVHEsmrNsxiS4piimz2ZRQe5qqagEJAe8dWmlmsxmf/P1PftOABlhdX+O7P/RhPv9bv0W5s8/RzVUORmPM2lEeeMf3YZPkm/7d+fra176G94FUQVVXVLslB6N99g/2WVtd5eE71pmdvYlXrpZc2a7ZuVbhO12q/TE2OPCCszeppZP3qYYFsW6IZYN3TrQIlMJ0uhQhEooSBl0xCHDA8gA934cqEvKcQkNIbGuhpFrChmh9mV5O7Of4vQMRGNBG9OU8xKIiKElxiRGlI9E1UHrmmEgRqZVusz+YtvgALbPwlQE672CnBb6eYWxKsrRGvbuFq0psmmG6HerZDKNiS1aKaJOhQ8THmsaJykhovZ0VMrmwKwPC7rCdc6/imilpt4f1Kaduv5tdaorzL1E/9yy68YhmYWiNOBK5fkJYyIK9OqDbX+fIIldX2Lz17q09ttOlGR9IzdhCOLVWrQuAxmR9fDURD2YUWqcit2sTAcKHSJgVbUNElnaedKULG+u4C5ewTg6FNM8wvR7TokGt9EWYoHRgU7mtbEISNSbPscsD1jfX2FxL6BrPTtXgVaCeFOzvTWiqVqGiqPCt1YqOoBpIsbjaYxuHn9vwALppiJnU6pE2a7jtKH68THNwQPO5P5GxXlD4aSEdzDncU4Fd7kvdPClRBJrxhDoqSA3HNhqOL6eYOCFtDlDjMQdVJTPUdlpQV7XMZZ2nrusF5NAYw+e/8AX+yl/9q+T5YSPktWuwssLDP/AhPv3rv8b20y9w7o33c9/bvu/QKuZbLOccjz76GMaYln8rwdc0jsl4ioqK4cGY5ZUlzhzLueXMEkWxzO40cOn8HgfXBVdeeU9TVFRZiUnEVDBWXsT6c9H4NnlGOSkx2mKXe1ROBPddOZULot+FzEInZba1jW4cpBnRWlTlpLEUI8ZomskU4wKq20W5RlBZPmKyBNdIppfkmRwatHrtjZP+SJbSMx2qqqAxCICjrIhR4Q5G0vQ7ewrOv4wvJjSXRtJRT1L00oBmOhPdsyMrxGoXRcCYhDzvMSl2iNERm6Yd5xq0TdHK4a/vY5QBrPxeNUH5yNKRDQ4uXmHoC+JkKtLJvlmMf2mnO77ln88bba8K6BvXXN/PzWaY/hI6jailAYyGbeER0WkXk3Zw031skqNMjlezBUxQEF8aX5WEEDGdFKIhWVnGHcygkG6gqxwMp6iYoEyKtYbNYyfIj27w/DPPiQulj9gWhxudF1RUkkBuSJf7bBztsDoApxoOVENQlmZUMt0/IFSOWDQt+T5gEi2QxeCk1kmSFmYpL12sUgSxGyIihDiuqb96GVWVxOEQUzfCxcW0lipgO11c8CIVe6SH3x6jQ6Rwjrxref9338eHfuC7Of/8F/mjz/4REZg6j28agXgqjaft8BIxJhEKaTzsllpr2dra4vz589x1113fMjBXN9b5no/8EBdfeJ773/4Ovjn859Vra2uLCxfOixOoKL8LJlAL0b6qaxKbcu3aDmVZYhNLp9shS1PuuaOPufsos5kjT4/x5UefZXt/2I7KRH3DaUXngVuon3mZJnjIDKafEToWlVl0LxcySdMaFUbQayvomSM9sSbknWmBZyZApTQRq7aiXpB9dNbF1w0oh5uVUpwHEY5QRos4X5ZiE0O1vYeqGyqtZBzmIgSNyTN8WWK8hvEEp0DnHUg0VAWmiSRZThOQjn+IhK0dEeSIUNdT6noMEfKsS6fXYzodwaALs5pQNa3dEyLCP9pBx4AbjRjmWzgX8CoShvsyE5jzy/MEXTp8U7dn7aI99voBPZ9Fgtw2AY3tdam3ttGtkJmUBk4samwuo6zeEqoYMtfsjEGG/IS4MJjXS8tw722koxn+sadbEgZCaI+iC1U7x9b2DuyPMU0kTkqSXhfd79JMS2xqW/ZWhulmDJb7nFntczYVDOwOlqKG4fYIN6nEE2lWiy2JgeA9JrVy4MSIaxpQEaMiUYGPQkSgcW1PwWCzDipL4Ogy5XOFpG4hsiDY0Jr6oTH9Dn5UQOGofODt33U7/+V//lO87bvvBeClC7fwR5/9LE1TE53DN0IhVSpK9gEtKT4slDwVchNppSiKgsuXL3PnnXcusqnXW957QoDEG1558Twnb7n5WwZy0zQkScKzzz7LZDoly/MW+6YXqEHnPFWsCSFSlHJ4N66mKFoDt7Zz+9G/8FF+5q//TV586TIf+9gn+NWP/R7nL+yw1Mnprm/QDEew1ic0AbqaJnHExBJTCImIAegkASWC9iQZvSObdHsDquGUpgh4pYiNxyYGV0v67AFjE3GCTCyhlxAnJcrIZxRB9LPrBhJLNS3JN1do9mcUTUPS68g8upbSQOlWWdTXxN0DYtb2PoJH1ZUcFlphkwRfzhN4gXcuRrJRXE2K2VQalN7hfA1Wo1NBQcagcK4ghkhoZjQ7r5CYTJRffetv3jT4EKGsSZKc4AvZN1FkgOfrECnWfhjziFbI5g/DPfzuVXRdwA3aRSbLCbPr0Ai/uNrf5hD0LRvcpKl8MK2cilrqUT72OM2VHdFQa/17NC0iRmnyLOf06WN0uh2izQSckWS4JmA6GSpprUSsprOyzLH1dY4vZ/SNokbkUpWPHIxnlK3ulNfISMRCzAwq0+huitcenBh4O+eIVpQ0olboPENpMIMMe9s6+p4NGlegYxBedGwDWWnQVjaA0YL53ZvRIfDz//Pf4Df+zX+/CGaAc2fP8vBDD1HNCrzzOCcz7zAXItCGucOmjA21NFnaoK7rmkuXLjGeHFLmXm9d3dnmC7/225z4+hU60XLxwgUOdndf92vnQgcAf/LlL7dZwVzCIC5MxecNnLIqD0s05qR7QT8Za3nPu98DwC03n+K/+vt/hY9//H/jz//Uu1ChpprO5JANkSxJyNb62I0uyUqOHWREI5mdthaCwqwsE5XG2AQiWJ1I59iIgIDgnAOdfp9Ov0NsD+h0YxW0xuZpi1mQvWliFA/nxqFrjxsXBA1KG/xMWFiSpSkpF9NEiBPeoxODSeW5dCZwW00kTibMQdEL4ZKoWFo+Qq+3ivcVVTUWokdTg/L4xmOcxqgOme0vhAsUSlJo7wRNF4W1RpSmrfUKN5syH5VqbdH68F5eBHR8DQe6TZzb2ZcX1tRiRiXt8xBD+8F78OIOMGd2KA10ExGJSyzKGuLBEOsCpqhbNJTM7+KslM2Q5wIZrDzB1aiuACvqssTP5O/4fkZMhDbYXVni2OYSJwYWg8fFSKI1VVkxKWsJvqrERI9JFDEzhH6C6iXU1AQaYmJEID+1YI0QKiKSwsVIdvMa4WROsyyyq3E6Q7V6WiKAqBB3QI3KUrz3TMdTPvqjD/MXf/L7ybL0VcGjUHzkwx8W5Zc2pZ6/cT3Hxsd5w3HeBDnUfaybmueeepr9C5d56alnXvW9q7LgM1//Mv/4V/8F/8M//IecvPUcO8spz2+9wv/03/x3/IO/9h/zxccepXaHJ/rBwQGz2QxrLc45vvH444Ibbh9rbsAwn/suNk6r8aZb3i/tpr/55ps5d/bcq57r3E2n+KVf/G/5pf/jPyFLPDFJxRWyk6JW++j1Hjq36G6C7sn7ck6APGpzjWY4Yba3x+jaDnUxo6mm7QEnxIpgEpbvuY3OygBVOrJzJ6iqAlU3IiyoBFAilqwa1zTESSGot8ZD7Qh1gzKG3tmTUoZFBUHhA60zK4SypNkbinBHawSo60pS+nbfz1+cRjHcv85segCt1W7UbZ5QNxilcU1NbApBkrXjdh0V2onaaLDSGTchSu9eGZHj0q1uuHJEEw97HbwOsCQucur5ZT2n9R0ixoiRerbPQgZ/nhYqubFkJq1ohhNp189tM63BLHXw4xKtDXnepXaKEFrRBOeZVBWjgwNsmkI3J99YoxxVRBUxUWEzwZbbXpfu0oDN9YT1RLW8awnGaRWpQsRpj9etH5GJKAvp8QGdt91G/eI1wqUDTPthWZtgfSCaIGgcIslyjyYE3FdeJq50Sbs9nD1oTc3nYSidU60NKkuopwW3nFjiZ/6jH+KbrYceepCbb7mFZ555RmbqzPXYhNkkSc5hQ2p+OyeJ5e1vfZg33XEH8YULXHn5IqO9PTbPniEfV8w+9TUe+cOP828vf4Pbb7qJ+955L7/48/+Uf/uPP041mbG2tIL9xO/yzKc+x4PHzvHHexd55wfezV133oUxhgsXLnDh/AWstbLxFiORufXcq+s1GcfMO8UK1zQ8cP8DIr/zOusjH3o3X3v6JX7+41/FBE/a60ITiFWQG7mTExGwhneO2MlI0pTZ1V2hBERF47Uf8u4AACAASURBVCMueLqrAzpmmetbu3RPHBHzv8u7pIM+1bQUHjfgJwXaWJJuD/C4ohASS2JxSna3aTn40UfKWSFacMrgg8MkpjVmB3wUayXd/rlNxMBPKSKKbHmJarg3v6shOsgycSCNcfG1Shu5gTU47anqtrPeRMyCltyyGeNcz0+4DMSIJSPEBhc90TWkncMG6Z9FKHB4yoC8RBW10CXnNjgt20NqP5mUL6CfSmHmJ3kQMnfWzVA+kN1/K361R5jO5LZxciDI6a9bTG2LlUWEDIpWDcX2OiSry6idEmMsyaDHysoSRweajpFbTBuN85G9/YIyNvjYiNpEL0FlCrOSou5c4eDSy6iuJu9kqChevbPJTAzVibhEE/sZ6ugSxflt9NYELh1QXdzCWLNAiOm5VYRWhCwh9jOCq/jP/vaPcuzoxutu6hACSZJy+x13CCjhRpCIkptvrp4JcRFCTVXxg+97H3//7/6nvPudb2Pp7pu444PvYHO1w/Kgw0E94wvXX+bCzjU+eM8buevMKbrJiA985O3cdvut9JaXGKyu8OZ738BgdZULv/3HPPbvPs7/+o9+jv39fbTWfPnLf8JwJNBD2ibi/JAM8/++oWy/UfV17uX94IMPvu7PPV9//aMf4dxaip+IGL9qIqqMNFsj3KUhHFSEcYlxAeMC5UtXME076glSn2qrcb0eBy6SryzTvfU0s4tXMN2cuL6EH8l4KSqISYLp9lF5D9VfR3cGglrzUsI1BkJTY60WYceL25iyka5y9JhMkx1ZJiQWuzJofbsgy/vobk/cXNqRr5uVMtMOghjT0CqfhPY9gR105bkUtM6KgrtPu2iTyLgzIpOZ0CI0lcImOVl/RQQFw1zTDkyWopf7i/f7mqP0z6qVRMQz17QOgVGxYJfMd+H8CJijzST4262oIlVRQ4Dis3+KcoE0zclW1pgOCxHPVwIf1Upx5sRxup2Ea9OCiTZYZaFvsZ2UWDai0WQtSa/L+lqPzU5OpqBANlZZB3YnJT4IUikEcfQLSSQ/OmDy1MvkKwOaVAiPc+dqFeS5vYmE0BAcJCsd9MtbrNx6hoPxHvFKgW6VOK1NcM6jVOvGsNylVvDm+87yIx9+p7y7OJc4Plw+BMqm5sSJ4wtSi2prZwDv3SKglVLQOJbyHieOn+DJz36Jv//IF1leX6eT52SDAZsnjmMSw9UrW1w6/zI/8w/+Hte2t/nc5z/FZBR59He+xHB/yPvf9342llc5trzKsTfcz8/94r/m9Moav/fVr/Lrv/7r/ORP/iSf+fRnaBvFi39fhOw1xLmu9g0/z2G1QIiB1dUV7r33nm8Z0Mc2j/I3PvxO/t7PfozKWDKVofNMSpmDGb5qpZdcxE8K/GxbtMFrGfvEEEj7A6IPLP3Ie5g9+RzllV1s4UlPHaHYuS49l6pEocg2Vsk2Nhlf2RaefZKhjXyfYmef/PgaTo0ItbC/dGJJbAbei9rNoE9VFdA4mt0DuXSCoygmxESUaqOxKBMJVqGszJx1tIQIqixAWVxoRFi/lp6Nd04UTRqHRov7RhC3EqWEJ42e50WBxGZob0h00oo+eEySEoOi3D34swF96DJ5+EFJKiE8Th3miiSAUodWQYtvYABDUCJ6T6tDpbRC93LUsIRawOjKKJqqFvaO1oiBfCCqwGQ8ovE5vpsRpg2mbEg2lmiCJ9EBtbKESRKyPGN1o8NyJo2J0GofjmaOaSW8URWjjBFw2Fzj11Pi5Qp9z00UXzxPXhetofwiSZLygEi6NqC6dg1T1zDICNuVoJJ8EBsXpQXSJ5ZK6F5OKGf8tZ/6AN0sOXynr1nWGIbjkXgwtbfzPHB8S6VbBD+B2x+8l9MrR1HThosvnyc2ijgJNEXN9qXzfPJ3PokjUnvPe9//LvZmYy5d3+Z73vVO/vC3Ps/qiVv46b94K7edOscTv/mHdBvN0tF1ymMDzLWCZWf58mOP8pEPf5h+ktDXliZGwgLYcciLf9WNDLJf2vrZO8+ZM2dYW1v/Mz/za9dP/PB7+OX/+5O8sF3BXkEwwjmOlYOiFOBHdFJToonetYCNtk3nPX405foffIn4yjam9KyfOcVwcoCtHS5EVFND2sFry2zcBkldtWbwMqmwxqAbj807RF8ScKjUiDbarBQmWOOJU5ElDs7LXjMWlCN4JbyH6PHTkVg0dQeESthkKk1xtCokxRQfEbUbI5fi3IonRk8x2ZH+TSLYB0IkKIUddPCTkrIcYUynVfBJSfoCxvJVg7lhmx3e0DfYabwqyNutHuZRPicutA1tq21LTNDSqV38XaRjHDxhPBF9sBby6aKATLROUe0sTinpLYzHM4aTAru8hG2bJ03ZgAO1mmASEdHvdbts5IblRJ4vArWHa8Mp03IKqSKkiphqojLok32qpiJJLSHRIgTob7gJW7kerZSIEgwy6pe26fRydq5cI14bkraEda0VPoiaBlqjs5xoNLceX+N93/emb7mZlVJkaUZVlZiWCqq0fo1CjLx37xq21izZe+/kykvnCbffSqeM/PSb38ddGyf5yue+yJ1PPcX21S2uT8e894Mf4qZz53jD/ffwxBc/y6TyfODHf5jnnnqS5JmrpFcnZL0Bn9t6geT+W7jz6yUXL4544dkX2N7e5od/8Ae5/syLPLG7dSghq1iki4e3dgsVbg98jdS899xzL/Z1cOavXYOlJT7ynjfx87/yWZKubNzggtzOdZBRYmubmgw6IjrZ9nZijGAt6ZFV2Bmh0pTk6BLdE+scPPKyAE2iIRusYXt91KBPTCyVO8CPR5K5tR35rNfDj0vh3nc7VKMKmobatxI/RYV2dSu2EEnQoALZ0gCnjSiXphHKSowJq0oC2UCoa9QUojGE5YzOnbfTXN0XWqYJGGtwZSWZj6ItJeb4dgveE52nnpWoYAhaoRPwVYMymrosCVUhmHD1Ok0x9aoJ9DyOD1PwGCO9fp8s7bB3sL9o04fghdusRGFDIlm3XVoZDwWjcYUTudHQCqgpjY5gVBRoHlHk14yRRpHS2H6XOkTS1BKrCl01qBBJOn1WBgOO5gl9JQIGHk3hAtdHFUVTU1QjgqsIrsSudDAPnqX54jdYOrHOaGtIity2JlMM3nQ7u488ia6kW5ms94WHvV/CbWvEUSHk+CzBJDKi8jHKzNNH1KDLdDLjgx94I4NB79tv6F4Pa2xbzrSqywrmbgZzCG6mUy5+4lE+9F3v5Cfe8+eYFWOO9Fc4lnR57mtPcOyeW8iPr/Li88/zt37oI9xyx51cPv810jDkxWee5iMf/Vs8d/kC7vPP0d0tuXLvBvdvdHnsyleZLaWc3lznLbHh5eGTPPnkk7zr4XfgKycNqbRtZLZjM+mXHP4Mfk4MuCHLeOihh/hO1wfe8zC/8M8/LRI9TQWugboRWm4MKCViCtFCrDxNWQiRIUC+tkzhavzBATZJ6Nx2gguPfJ3UC+ZBKUNvaYX+2joqz4gbS+yvDiiefQE3HUpXOABFtXBY9dOKfPMIDQ1hZyx0zixD1WJun6QJyZkjlJe2MBrcbCqHV1UuMAshRpE5zizGBfr9NZpUMWsK6sbD2jIxOKxy0OlgkhQVRDFU+5oYZF/5qhKbICXqqnZ5FTXo4ZUi72VMX7oA0ylBx5aIesP04Zu9cK0Vr/WCns1mDEfD9vaV35dmiWORpzPnRUtQ+9rhZ06GW/MswItliXR02wp8/otSBKVRqcVFkXRx0waFgTQhKo3Nc/r9nNWuIjVQh0BNZFzVjJuGBocKDSoIOMCbQLW7C7sTkntuEu5uUKQbS6iVDuW1PYiBNEtJ0CSnV2l6Gp0Y1KCHKSt0bvAKkYbVCtXJCNZKcZGm9FXgxz74tu94Qx89enQhRwxyMB66L8wDO9LXCZ/7l7/BW9bO8OE7H+a7T93JuaNnuOnszQxWV0l7PT74Iz/Mudvv4OmvfY5n/+TL/JOf/SVOnb2f4VLCv/zYr+JevMLzbzvJAz/2XkZpYL8qqLf2KWYz3nL6Tnresnv9OrMvPs2fv+cd0Mhsd95tPVyqxQ6o+f+1eyCyvLLCrbfe+h3//Hffczu33LwJPhJqAdkEX0No0HhiO4dt9keoTgoETAjo4GmuXIMXL6OKguVbjjO+dJlkWqKUkudWkSZ4yqKgHE8YX73K9No16skErRT5yrJ4hwcBCEXvUViy3jFiTIW8YySQVZZLYK/0KA5G4mfuHcrV2DwREk97HUUQRZNpSTSiBFuXJaEuCM+9iD9/gbh/QBjNcI3DK0XodwlAphM2OktYbbHWkliLVgJK8QpM3qXTW8f01rFHjqE7XXRod0n4JiKBwCJY59OroNuOc9tv9dEtUEtzrnSMChUNc1qXTRO8k6F41luhntUE58RWtE3d5o200HZRFRq9PMBPZiSD1u4m1tiljKZwRJtLim8tSZ6wsdJhI7MQG8ZeM/GR7VnF9eGIup5h2tesU4M/PaB46jy9pQHj516BZ7aJBJKbj1Nu7dK8sI1xAZtqslMbDOsS98IV0rUBanmAyVN8UaKrWjaAbTXHPaA1ZVnx3ofOcs+dZ7/tRvYhYLSm2+tijJEGyQ2z5htXUKCt4ZkXn+dn/s7f5qN/+S9jqoas0+PqzjWa2Yx3vf3tvPj4U3zqX/wae1eucfnlS9z1lge54z3v5B//0i8QvvAkv/XgXTx09ybvPnMH/+ZPP0czmnF0FLlajHjw7J2sxZSvfOLTfOB2xYl8lc3NTc6PtsmVvSFpOzywX9vsiyFwdPMoq2urAn9VejEO/Gar2+ny0BvO8uylJzAhQNMgO6jtu8R23Iknhpre7TdRbu3A7kgymRghswyv7OCHE9I8gXFJJ0+pvGN6fZtiPCTaBKqK0DQkQLQpx+6+jYtffxpVtXx+74mx4eDic0QdsVqLT/XqCokDN56AtdjCQxRZAjNYoq4qQR7KTm4nQtJ+DkpTTPdbl5FIioLE4HspFCJ0GH3AFS22fGWJspCUHS8ZK8Gjo5gj5JvrLKsu+64Bm9M4RQKoEPB8E8USoA3WQzaVRrUXqIyY8iwjsUkL94skNiFPelSNJ0+FxzmrKtFNUgZXFeQ2Jel2mc7KlvsZefXnLQl8PZ1hjCYggZ4qDY1HR8X8hE6ShF6vz/Igo5sEGg8HLnIQFFvTiqlz4GqCcpi7N6ibgmo6JF6bkNx3hNlLB+hXZjAqmVyZ4rTGti4EE1ejT/bwz10kiwk+s8yeegF1dW+RyqgoJ6KJidxeiSVq+JEPv/1bQjHnq27qhevB3G0ivk7/Qs45CaI8z3niM1/gldWz/LkPfZiLT59nsn2FZ194nt969E8Z1p7LF69w652386G/9NP41R7/1y/9IqqaMrlllfwNx/iBs/fzh08+xse+8Xm6L13n1iSH5Q5RQ1MU+O3I6bef4eN/+ginvu9NXPjGl2hevI7N8sW+iDEKQILYTjQkG3M+cOr0KTpZzqwsSJNUwCnfZn33W+7iX3/qSWIZMUEECEItQv1RK5GQIqInM2I+Eex9W7ejFOnyEihLTERr2xLp2IxYlTSuEYhmkklzNMhlpJTmlS89gSIsElDdzQlNhXYNMWjs2gq+n+Ou7bJ0+jR+UjHbOcD5GjvokA36NE0Ds0pgn6489HjTmuAcioBNMwG2OEfQ4g9NGcA3cpBoJd7YKCaToZhKJHO3FLUAtETfMN66yt6oICITniRJiU61Av+H7/Q1Ad02hrodEYQvarQ6bIJBpJv2WV/Z4NLWeaqmpp/1WF05wvW9HZaWN3CuZlruiNKCUphOj/W8j80yxsU1gd+9dvKh2s2rQGcZsZGXEZqAtmInYpcyGOSEXko66LCcK1R0lD4yDDBsPNf2hC5pEoVTgTqWNL7AP7dNfuwITS+HkcMHRSwDRjl6bzjN9IlLmKiEgRMa4tQRXWRtfYWTleLpK7sLZFtUIkoYfCB6kZY9vpLzzrd863HNfKU2YTgaMR7PjQai6LK9diTEIeKIGPG9nP/l//sY+g3n+PAPvId8e4tTo3vZPHGSa/sT/tn/+cs8P77GtT/4OJcvvCSi9ys99kPJX7jjjfzRI3/ML3zl9/A+4r/+MlO1wqnvf5AnOpYv/LPn+a/f+xNEH/nG3itw4m4+8Jaf4Gs//2/Y390jTQ7RbkKXbZtjCsEfh8BNZ24SvHfTkGfZt3wHIYiJ2/333cqgKxJjzjfYNMF0LGEs6jYOjzYaZS3l3gHkKXEi+l9Jp4OLkZN3nWXvmRcpD/aJ1OxM9rHKgElFfilJRV205RwHHCZLpYRznjztkRw5wujaZXzdoFODiwHGBfnRNXbPn8c20ArQ42oRXainY4xrpPWhAipJMUlKXUzRaUpiLUFBXZStJHHEaAGryBxaDiUtLnv40hPyVEwjtXhfz0EoSiuarS1Up4fNUuKkxORdXJbhZweo2fD1A3p+I/iqxEaZP0djWeCzlWI43Wc4G4Fv0Aqm5YTR1REqKKY+iArIDfK+sfHsm4plH1nq9xmNRnilFkGtAJSABnSaEFBEH0mzRE6zCKqX4FNDkiSknS6dbsZyJ6GgxvvAJGr2pg0HsxKfRLxz2JuOUL98kfTqLkZbktOrVDolDGfkWYYzJXFcUDx9BT2uwHmIHlWUxNpjBjnj4YStV3ZbSV1a4IdheXmF3b09otYkS30++M4H2NxY+44C2hiDNYbRwbCdMYqHkb8hiOWVHKqogCDJjNH87D/4WbauvML68hJbW1tcvnKFS5deYefSKyznPT7y4z/Gife9i0ceeYRrf/IU9/Q2+H//7v/IQz/9Q/zV297KY5/6HF95+hKdd57lPX/9p/jVX/1XbPQHvOnIaR4//yzbeU21lHLvuZv58z/3j/iZv/k3qdvU9HCftDd2aNFiRJaXl5jOpuR5ZwFh/WZrftufO3OKkz3Nk5fGJCqCR/osUcQIpJY1hKYh1DU2T4l5SqiCoAhPbHLt+i7Nzh72hi48yEhVKUVTlSL66APRGKLV+LKmc+tp9LEjZC9fx+YdSHL6G8v4yRQ/LrH9HsX+COtEyCA00jDVStMMJ0LfjDLOtdpIU0xHdJYQm4YAogW+wHYIUpJaxpVzqK0o4BpU8ITJDN3JiUkCweNVkAblcCKuP01AW4fNl5g2DT7UYnTQ+yaaYjK6iijvhBJmjVANq9YFwIqSh7GJIGnk00EnXXRdEmIkSTuEqpSHNAaztkqcVPR6ferphHnyvoA0tkGd97o4LKEBEzSxEMPrbKlLzC11iFiVYHXOaqfLSmIgRIYOZiEwKx1F3UACMUlxSRB8eWrwjdjTVleuQ+UpdsckLggR/8oErNADTc9Su0qw390OxcuvsDsrFzepTgw6zdjZEZE8cktVTHnv2+7+joJ5vgaDwWJjL4L3hnnvfM1/LyjJDFRiUd7zT/73f8pSt8fdp89y5uhx3nr7Gzjy/g+R33qc8+M9Hvn07/O+h97OHW95F8PfeYwrt+V86N3v5dix40wfv8jsttt5x/vfw8HBHr//qT/gLUfOsqFyfu2lx+jce5JRv8vVi1f4xpWLZMbQvHYc2bpoqCglCDGSpqL5nX0bAYUbkWWdTo+H3ng7T7/4JSwBipJQtTRIawW8U7f0UgJ+f4Q+coR4MEENuiSrS8y++KcY78SXSp5Q0vIYca1mm44NDo9SOTbvYnRKk2f4GDA3rVPVFW4fstvPsvcn38AoqEYTaG9T3zQoq9BNwCQpDHqwVYrs0CCnGo+JOMK4bpGH4JURAkmoILQoSzcDkbrAK9CDHn5vRDSCzVYEyDvotQ2YTKGZovb30YhMNMHj6hnBeWI1Axp0lhLDt5DxBalfI6BcAyGgjZXN5uRhsTd+cSuxkqStxQvobpfgPenyEkFFytGIF4czvKY1MG+//xwyaCxNVAJmCIKail5qdlfWJGs5WZJhMkuSGfJOgk2gioqh97igmRQVVYw4rUlvPkmx4rHZGZqvvUwcFoRpiX7yCmnepaaB2Ahrq52xEj0+NzivSEyE9Q76pRaaGUUUQS8v0YxnAttLZKxx5vgab37gtu8skm8I1PnmlnFHa9yHahvcbZd7kcWI77GPEZsmDFSf0DjOX77EuXvuwj58J08c7LJ/4QmchvV7buW+N78Juz3iX117ir/2l/4OKio+/v/8O5569Gu8/Xu/l1vuuZM/+MynOf/Vx/nZN/8HnN+5CkcHjJoJT/77T/GFLz1DHBWsrq6SZCl+MYM+/FVraXJaazlz5iY63ybVnv/sN/YaHrz/Dv7lr30Rc3KT6toOxnmcF39xrYTiOq/XQ91A7UiOrFO+soN/eYdMKVwMBNnytC9Wng/AB3q9AYFItbJE0IZ6/4DwwmVU8AzTBFJLNI4mInJVrhFsBWpht2MQYwhfl/hJRBmFCx43HkmMoOllXSo3w1slvldBkec9vGuomnLBYvPBQx1b4XxpqEnJaUiPHcUeOU7z0iuoTpdgLG5vB+2l6x6V2ANlaUodxANL+9clZ7REi3ZJKp8KdS54QelojYkR7RpU2iVUM/kr1QzyHspaIV4HhUoyKh2JB/uk0YmjYIv3nY9CokIIG90ermxnb1a4ynIjJbiigSaSrufk60ucuu0M/SzSpcEFxQjNTMHYB0oD2Z0ncWd61J9/lPzmVTjep//AacYX94hDRbU3Qc0coRGPIZNJx9oeW8XcuoZ+/II4dBiInYzQzIgxYJMUP5yivG+NyBSND3zvO+9jdWXlOwxlecsa2NndBa3xeOZmcm30ti9mAddboLIWQaE1JJaRb/jYb/469nd/kzu+/6286ad+gPfc9RbOhi628lxtNO//Sz/O6XNneP6pZ/j8J/6QfrfPQ9//DtJ+ypceeZS//V0f4f7Tb+AfPfIbfP7aC5wfXqNWgU6nS7K8DMZwY8sutqXYHIwjyh0JvV5XOOe8Otv4do3CN957O7kONFeH6CYIlsEqMKoFmCDTkSifl98/QPuAqWvpgjsvXeEoM3MimDwjW1uj2B+ifEPtGlGfcY56fICeFBijF9BaQoNONNX1PdysInViDqETMQlcPnWSom5oJlOhZCqRQwquFl+syYxYOoLz9Dc3mK7kNC9toZsgrLGWmRa8XzQSiW1/JJNaX8+mokpqDab2dE2XZnOF8biDmk6I0zGZETO9unF0eqvEZkY13gVfLd7nawJaL1BbIXgJ8dYsLqLEm0op6R5aA1kX3whHWM0KSHLR3QZQkSSCKyoW23X+w6h258aITlNILbqVhpH+2yFCTXdyQllT7O7TW19DJYZ+npIbw3XvGYVIiWZYO/SxJfy5DUZfeJRsOKO66DCryxxc3id8YxelE4xrsFlGTBw4edzoI3Y5p+kZjIfk6BrxyBL6yApJlgun2xrUpKCeTCW4lLgaf+Cth1zn72T54Gli5JUrVwSxBC3iinZ8t3g1r1qLwxAxW4tKYY2mZw2+biifu0z2mWfYWLqbJvfENGVjfZ2HH36Y4fVd/vA3f5vYNLzlg29n7dgRnnzhKZ7/6hMsdU/zK5//JE+Nr0KeYPOUrjEYa2XTa7Xon8wlZOeZxaJmjTAejynLkm7eedUzf6sVY+TcudOc3Ohx4dKMRHn5bKzBjadi9KbFV3xODIquFvH9JJES0SiMzfHBScYQIo6Am05pdy1FVaCSlLBbQd3IcDV4MmVQSSK02nJGs78vh/z6KjpLaFo1mlmiEUcdTyxlghNdI4AUEDGFsqGMnuLKFnpLgU0l9aYWwQOrMTbF1+UhyUVrkUHyfkFDba5co8lLfNLF7e5R7VzBzqaifBvAKENNzXD3UsuVN4QbsAKHSDHdcmBjgBjkCxFoow8Oqy20emAxRnwzQxmNyXutnUfLtAKsTQkh4PdG2AiRucOiF+FwJcZqMRhiLbhcm6b4tvOktcYmFtB00oTu6jLjXKN7HWodoKMZuoaJC1RRURUOt9lh9dazXH72OdT56ySbGfX5PcLQkQSFd1KXaxeIvZzqoECXNeCwWjyuJo89h7o2pVyLmOEEd2lLso08RVktL7Wf0xgFDk7etMkb7v72s+f5O5vDJvcP9rly5Ur7Drjh+LrxKHtNPT03AA/zLrF8vWlpl0VZMR7N+Pgnfpc3PvAmHnjTm5gVM6pZzYvPPU/WyVm9e5ORavjn//pf8Su/8svs7u3zaPo0WZaSrfTkeRTMec6LJ3sthhta32dp/Te+4erVq9x9zz3is/UdvREJ+MFgwH1vuJnnzn8VqxUhzTBHVlGVF854CCgntTCJgaPrqDqQRkO9d4A9s0m1u08YF3gtbCVCRNcOlaTQ7dA5fgRf1dRb2zJNyCx20AfvsZ2MuNKlefkySYisnruJ/elUUIFLq9SXtggXr0oZWNaiMN7NCJ0+/voe5mBEUK2rhxfEIsYSvPSjovMiGZwYXFO35DwBskTnRVCyqlvegcLPplAHimxGdDVm2hJClKKKDbEQkJZSgRBq+Vxu6EEeigSG0KbVCttfJ0RDlnQph1dQ1G3DTDOn46gQiMHhXEAnCdYICCGGSF1XqBjE93dco22CXVmliY7ud93N5PEXCdeGGKNw0ZEYK+bkSrq5c8JDaBybgyVOHTvCk+MDfBMoRzW5sSQRYjA0QJMqzMmjXHv2efzXX6Cz3Ccup9jndsApGiX+vdGKi2GYlOSdjGY6kx5Ax+KtJh06MjRqc4XpcEaCQltNmAqYvw4QjSUajfMN93zPHRxZW25v7G+9jZ1zJIlYvO7u7rK3t7sYVc0ZTTeqxhhlWhSehPc8sHRrMyr8OUCJ2dl0OmVazOgVXZYGAwZLA5Q1NHXDbfffh1keMJqMyXpdnn/sJcZFyfLGuvBwtRJMuj6cTtwYdIrD23beIFz8mRJm0NWrW6Lqsfi67zSs4e1vvZd//7vfID26SZhNaa4P5aBoanSMImrvPU2IqOsHkq72l2Cpy3RrB9vWojLDNigSFEFYcxG4PoSyFstj7LHc2QAAIABJREFUa9GdLt2VVUGUpRBSRaMicTRGmQyGY3xTE3YsadHgFdIo1qJmGktHHBfYNMMOcsrre9TtrFvbVPT3QoC6RtdNqz6ipAcFeCIWKQ3y9RWm13eFcILguWOqCAe74BpMKAUgpSwKTWyBSPOULsYA8RBYsojtgBcwhjV4F4k6JSQ9TLoEUREIhMVfjCJoB2g8NBW+qlCVF6G9OZPINfLhq0gznqIHPYonzwsGGrXwkk7Xl0nWV0SAv53ZRRVIjvV4Jcx45KXzTIsKPyxI0ZhE02AYe08ZPIX1XHn+ZSZfeBzrHeaWDWZXDgiNQjcRS4IxFpMn+MQSWt6z6XUEPHNEHBd0GTCbq3Bqg3BhBxU0sYmtHWjAKkuCxrY+Kt/1hpsX1M/XW+GGP3HOMRqNsErj52qeC/rkIQd6MahSYoauWxEBpebtk9CWRS2HXBls61118dIlBoMltnavM60rut0uJ06e4MSpU2wcOcKRI0fYPH6cbzz+BN1+D5vaNrW2mLb5d2Pta6xZ8HEPm1ktXLc9xJQScMPe3u63PdS+2XrwvrtZffgekv/io8yOroCPJBgGSZcUmfkH79FoqZ8DoubRz0iUgqhRNsHmGSoIvllHjTVG2HL7Q0JREF2DKkt0WTO5ts10b4if1ridAzm8fcNosi8YahdRhSMmKSrLcNERXUPQBtXpkwyWCSiq4Uj+zfj/t/cmT5Zk13nn7w4+vPdiyqEya0AVIAAlgqCaMkk0SSuKC2mjlf4zrdSL1kJqsyZ3bU2z1tAyGbtlWkDWpESZSBAkBKBUBVRlVkZmxvQGd7/T6cW57vGyKkH1VmZwGLIqKyJevOd+z73nfOc731eJQs7hT09x3/wQ++AR7YMHNJuN9rj7lrJeUfCUpqU0HbJeVbDZIovdsOCqUwamdhLqnETOGZODrq6iuW/hbaBYnYxKIeDMgRj3xN3zOgg549K/7NKvtn3PVI3diwe7WZGHrSp1mozNmfT6FvPwAr9aYZsOQmS4usY2a8gF11qaizX20SmlRPKQMMnieu1Jem8RySSxDCkxYTj4zP7P/iv91Z585hH7iPziFhcjuYAVhzntSclgW4vJjjSMNGcb8jhiNh7Zj5SYKOuW4cVrmusdthjtX5oaaEbRbmcdrW/4zb/+30e357Zc27bc3t7S9z3Dfq/iBqh3sa0i7HM9utzpObjm16ksKeMM7qj8mXGJLz7/QvvVbUMIkYuTU5x1bNYbPq7EiN/9336XV9fXtKtezcuPfp+p+IW1eq/dG5NTmj0s+uv1a7UJyctXr1gdSQuLKOHk/w9j7KMP3+Px3/qYzzYtaT9iU6Y3nnW74SB7BbX6U9iPrD7+iOA95ReX2P4EMR7TeJpNR0gBNxbeffI+L29vCShQ5kTptqmgyPThgOt7yu2ecnWL27TIakUZJs2Ozs+QLuiqbnvC7Q11ahhcQ/vuE5IV8ucJudtXRrP+T22QR8qrQt7ttRvy3hMF5fY7nHcUE0ml0BpDRureWCgm46uumCqWoJmTU4cZYy2mijzMgz1SRBlp9XpDU4zaBi8l4UqmEYeVeWfWmuD4xYAqx6OpYGgdcrLSRVYgXt/UZVf5plKwF2vktKMgxFG1skuJ0BT8N88x3zohtMJwtSd9fsAFUeVH36ihmDFg4VCEu2JIGUYMeUjIlLC2JU4D3qnoYEm6k7G28NGGvHFaOTROEeanp+T3Tog/v1TpnZMWG6OqRdT521KdQkx9qJIKj89P+PivvP+1BfzVaJY6hJJFaLuWq6srfvqTn6hNbQWc9H7eP4x5aGWe4JmXizMGb9VGxlrl0qsMkAZ7zok/+4s/58m779K3LY11zJXw6ekZRoR//a/+Fau+VUG6ilQbe68445zDe78EszHaTiylDmuI1s/ziZ5TxnvPF198Adz7h+ec39Au+8uuR48f8j89OiH/n/+B/nKLx5LjxO3tK8ZxT9v1SEisvv9XkXefEn/xCsZMeXFL885DkhHG2y1yqyj07W6rVrRZTer9+akeFgnlD4gg44inYFNdN3eDqtgGoe06mtMeCYE87jHTpDhR43GbFW0xmCCwOcGvejCC6VrMugfnkQzn3/wG6/eeqmnfNGG6NY1vsDHo1BjgcmL62ed6cGAxqxXu8QNs39N/95uURlVxLapsksJB62aDAtVtg3twjunfEtAw86sLnVvx4ORDvF9pX27RtxIgs8xOF2H9rQ+w5ycY74l3O/LtTtMCa9TxQlQayJ+vcb/+Ibz/iPT8CqaEDxl/smL9m9/CfPsxceWwH3+AfOMhHKKieBjMlDBdsyy8WGBXCttsmKxlECEdJnJK2v7atLrwjCj39myFeXrGNA7YUwedxXSOMgz4986IJORmwGzWlMYTnr1aqJ4z7DwbBCRgipGPPnzA0yePqlxuWRbx8aU858RuGAgxsFpv8G3Lf/v006P0VGvQIqqVlXNeUHSMBq219mheu85Q82aGawDfNPzpn/4pl5eXiwndfIVp4n/9Z/+cy+fP1X3CzNJPrgaxOlR6696goOownG5qyxCJKIg6p+fWWi5fvOCzn3/GGFUy+XA4vDEfP28Ib7uM83xrFzD/1x/RRMEWoyVZfRt5UMua4RfPOPzRj3BT0nVpLHnVc/GP/gHu176N9SpGOZZCQnj0O7/FyT/6e5jvf4tkZxotOJRyWeYTPBTsmFQwMGWihXEaScNA2e5orVW6qGiHJ0VN/12/JhsPWVPhkiJGMuUwMG33MAY1bbjZIhQiaD3eNviTDWWzQs5P4cEF5uIh/skT0rpl3N6xe/4CkgLUOU3aWUL0yDVqp+wvTskG8v7w9YA2JlNQdc+YJvbDS2LcUvJU5UXr8HVl8di+xa5axtstaZwoIeCq+qGgvspkwZxtsBcb0nBg+vOfka7usNsDzoH/xkP8d5+yf3FN+otLPD3xP/4U29cT1Zqq/lgXn1f2mYhlmz2HbIgYhldX2L16DMfLG7WG7awS31vLKAF30dFeePq/+xHmo1OdWW0sOezBCa7rkNZgs9CkmTtjca7B+R5rGzAO17UUb/nud75REeZ7BDgdj0DWIGt8U0XmDW3bcn52xjCMNVhkQZNF6viLNThjF/rk0h7CLCTC45pWXR6NyiZbyzQM/Ot/8S/xX0l1/+yHP+R//z9+n7ZfMw832Dp7PgNj8+D/fOI76/DW4pxfWmy2IuvUU9sai8MwHAZ+/tlneKttlHEc6bv7FPy4Bn9bcH9w3sLhDtc12HngoArfaKvOYEK1YkJ155rHD/HvPSV+/G3iagOpIJKJcQQjDDdbbv/df2L4wZ8oiGsF51Tq2RtH06wAhzeuOlgoqDs9e82KFnd6ovd11WFO1xQRshRGIiEHys0tpEK/PmXVnCBTRg57zHRg+uQT4qtX2NZhVg127Sm9UY69EeI4EG6uMddXpFcvyFev2ZgevrzG7HaY/Q6Tq9sGKgFlxOBsS7M+w52ewZQodztKGpf7eFRD66IsBVKayAz6kM3s+wPGO4yxtN98j+GL59hYkHFSi5Xqimcq2yav19B40hCxV9UXdxcUGXzvEaXrmMaB8sMr2uxpT8/IDZSXO9yTjQoNSkFSwqSyiNSJZMaYycB+Cky9Y3x1DYcJOYyU/UD8o0+gzkRLrBNel1f0Hz7k7stL3ANHeZHZfPSYKY/Igw3x0QllN2JLxCc9IYUqxTPXrvrEEQN/7Te/s5w8pRRyzqSUCBj80el4GAZS1iGDw3Bg1feVwzvPgpfa99cT11a0exbEq0cky58yCwce4Rrmvg7u2o4//sM/4i9+9CN+62/8TXLtcf7+7/8++8OBtuuWun4uI3Ql184Cc1IyEyDqkqqKpCo+wGIKUMo9WHP58iWNc9zc3tKv19rerPfnmCF23MOe0/zvf+/b+DJCc4qloYSk6iK+9t6NGsqVrEyp9fk55XzD4dNnlD/+PfyonYi2XzGOAcLI8J9+pG6iM+JdlK6aK8C2efyI7WEkGsi7LXQbcs60F+ccJLH64AmDZMbtHgFc0+KdkG5e01ycIT5RnBDGHcb3artTlBLq3z8n3Q2kV3fE4RZvHbZkWoScIsYqY1JnIoSyPmH/8ks606jlU9hByW80UASVSmYKJOvg9hZHJhzp5S8rr1TZEbMI50lNtWoP9HSNyUJKgcMnn9baz2CMX3rXYiymb5C2wTpLvN1ig/rwFNAa453HZAvx2SW+WIzzFG9IVrnXbqVk9TIcKLg616wjZxStyw5hwsTCMB0IbsO0m7CHhNll3CjIf/4S/zceMXZCt/aYJ2fYDx+Tnqx5NET2Zk/YGMb9luKE+Pw15eqW0+9/xPTTZ5iXV1jnIFfviLahmKyfQwxt1/DB0zNySTpGhy6SHBO7UdHl+doPe2KIiiQ7yzSObHfbem9F+48zeWJJbWVB0/R7SqWgyvJgl0hmxj9kYUulceSf/i//lL/2j/8xbdvyg//wA/7vf/f/0LZegbC6QEo9+ZfUvb5wgUozLPdoNgaHgarZnVNW/6tlg4HPPv2M11dXXN/c8P577xEmJQvFGPGVKfi2y1rL93/jO3z8V9/hRz+5oT1bk4dI0zVaWjgH7z4mPrvVTGfVE1IkPXuBSUITEoSBTDX5s1anlRpB0oiRrCIAuZKn+p7Vo0dsw6R1vjHIZoVtLIRAORwwYSSkEdM6XK9iCGKNWiwXYXrxTNtFQf2enU20XYcZtEaetgfSdotNk7byStDn6R3FN9gETdOTJkFyJE8TqUxKziqKNxVT8K7FGU9MI0JCJCOlkLYJbdqWNwDrI02xuihqHU3RaRq76hRUsoa43ddesVlODCsq52KaBtd15CKU3QEOEw1QRGdb3WZF7jrMzV5ZNiIUyVpU2EIaDvjyAPc7v8HhP/6UfiqYdqUglCSMJO1758ghBHKJDDGyu7olXe9Y+45xuiWPAesK5tEJxmXkdiQfLPvPAyU/pDhD7AylUa5v96AnDDe4UpgOe+LlDW2VV8UZcJ5sgZR1VFAsq87x9MkDhnEkx3x0C4Wh6j7P6O44jUxjULO0psF7NS6fQTRNZFUSuczCcTVUZ6FDjW15EwE//je5n6nOkmmahh/84Af82z/4A37nt3+bf/JP/mdCCDRNs/zY/NNSke15e5hTYZG5RTYf/3Ov3OqssagVkKLf+v9PPvmEECMPHjwgBvVeCjGSc6bv+7+UcLLZrPnbf+d7/Omf/AFmbenev2D68gZXgzN/+RrrW9rVGroGk6GECUkB9RfLGKOnn/NeWz0GSp6WRW/rpmisIeQMznL6d77PNE3kYWSz7gnPL9l/8jnOFspdUJWaacJmBWeNaZTLEEYg4ZoVtu3IJXOYBpzRsWFuqx+1ReWF93skTpRsMV1H++QxTe5g5xhuL/VZW0+KA+SwPKGYRxJz77+2qlyDLSAlYylvyA7d+0MXAVN0sgdtwLv1ijQFTM6k25t70oeo5pcRpeTZ1oHNhOEO6nCF6zvCEHBNS1l3SqC/vmbdnRDHqZLFfb3ZCoClH39OePYav8+wWmsqYgpOilrZ5EiOgSFFpjwx5UzxDbvhQLy7IU+q9Sw5Ef7wZ7i//20kbWh8y+7T5zQOwtlK51dbS2kguYRbreh+3TF9eUuTDbZXwzQJCROnZSEXC6kknlxsePBgzTROlRGkl6mp53a/Y10ZUzFEhsMeUOnftm2Yxkk3RFHhGpPNcgKXpa6WeWpVU//59xiq9th9yr3IONUrZZWE+r3f+12++Pxz/viP/zOr1er++6TWyTVXX074t4aaWUqAKBlTlJ9snV1SaTUiNzx//pzLl5e89+67SDaklNgfDjRdiwt/+UiltYaPv/tNZcBNkbAdsAg5JIpxmJhwj0/o/8pT5GJDEgj/5adYKdhVqwncGJCk9XaJWTkSkinGYn1L8Z3et1iYbnaUdU+5vGJ8fY0LmbsQKNs7jBRKjBgKNmfFg4zT8rK3sOkw2eLdCky9D1YwrfLeTdMgOcBhwpVCHgfwlhJQR4wUmXZ3jPugY57WabnVOvKoG5DiBAWKutHobTa4vlOHljgtHZJjgYwjf+gqsYvSLiUX0jSSQ6K1TnuxoieJznCq/rB4pxpLIda6zCLSMEVtpKdioJ7sFGGItxjnVWKmCMYJYjKSow5AXB8w1lNiQmzE905b5yWTUyTGiTFMjHliIhKNEFIglogUDXjnLDwfSP/vTzG//R3Sg1P68w358poSA5mE8VUzatXjxox5f4M8vwFTT8lias1l1PfZOHIJiDFcPFrRNp4wTW/lXO/2qubSNS1SCofdFmM9ISaGYeDVq5c1mO5rY5V11Re75+bOHldmoWQuJ+xSX389FBXGsPzoR3/On/3whzjnK+J8H/hm3hCOyCxfZYjdv1p9L6UQSsLNvG6OftAY9vsd4zAuGch+r+YFzvulNPlllzHw0Ufv0nbaGeBuR/fwnLgdWP/ad5Wdd7tl3xpSHEkvbzDjQU/nJJRxhKAnm+3WOtxTuwfWK0od+zVmvdJJqCHSfPQUHpzQ5IAdJ3JyyGGLS7NWXgZJeNeCWLLV1pErFb222pbMKehp6asY0XQAEk5AcsalQK6t3WxRXnlI+G6FLYbGdYR0oAQN5lKEIkkzAilKH7U6Apxyohy2kIJuPCKUt2mK5VxwjaM5XZO3ez2JU8abKkgvMrM+NaXsGj1bg0qROqsqnlIK9qTHPbkgfnlN41uCZFzR1Ft1zfRmCeBotLbxhZIiFOW+SE6QHe7EV5BPbT/yFBjHgX2eiGtfpXSpeuF134gRkzP+uSH+mx9TTnvcP/y75O+9g5sSq/c+QK5ucSZTykD82XPCz6/hcquv4QwlpKU9l1MEk1UrLScuzlcYC9MU3ro4Ywxst4myWoPAdncgpcQ4Bb744nO+/PKFsoqO2lyyIB+KTdgqHCDq7s1MEa2xdW+VUn/mq4F4lKhTSiIl8FVVorZiK3pee+tLv5sFhVnS8prSSzVFL9YuWubHTLnDYeD19RVPnz5ht98xDAN9v1IQcGbF/ZKALqVwerKm9TCMCuTlYcKsV8TDgRIC6dUN7vIGi6FbNURnyRKQGLGdxV48RO4OmNNT5G5L3qvvtkHAWtqmw5xuKK0jbnd0f/075KcXpD/8E8qrCZMzkDEOJCRUGzyBcfhWx4NTEVyubbiKW9iiTqElSfUCq8+xIutWtIOgQzjqQEkxJKBtPCkFDUoHtvW4bMA4VRD1RodRJFNCQlJSEcW6FuZ59K8FtLGGkjLxVs24zML4VrOv+YHbtsV2HXGcNB0BNbJrvNbS56cU3xAvX8KkO5exTtUGYZH89RdqD2udwZ1smGKEKWGMqztj1lM5BE2Po6ekiRhGhmFklEBZO3IqhNvtwqSRqMijdRa5nbDtGqbA8Hv/ntA5mg/fwbx7juxuFegKE85kwhRww0ARr97CWXWhzDwzLYaT9Zp8e8vD87USJ8LXT525V7zf7ym50DYNWeDq5oZ3Hj/m+fMvORwO9H1XpXCXqFHwqQJlxx4myzl8H2FHKPmb12z+XWoQmlqQ55xwxtfnRc1ENOztki0cjYeYe71oiixBbeT+9xtbg7lmESkn7rZbQoy8ev0K33j6fsUUpgq+mV8qHlhKpkjCGEXNS86w3VPWgrm6It9ucU2n7qIlY568g2sN8pMdtC1lnFRYEsHtIxRHLOAEUsjYVshhwnw5aO0the2/+PcKnsWAi4kyDmAygYwVHauEQogjMSecVf15MQVOV0iIKsgAWltbC87Rtz2uX7E/3BLDnvZ0AzGQq2jCLAwhZSJG1fGmti/TNELWyTEZBqDQrDrSYVgUbLQEnDswb+rz3afcOWoSlutpIdrAEGuhWPXq6XvwljDbZxq37BCSCv7XvsX06hpz+RrT9bX209OtmAbfr7CbHoZInA64kx5Wa8bdgbIbFQRD+21K1sjkKVSwTU2u4zgSxkCyiRhHhleBcrvXm7UfKIdRPZpTgu2IaTxy1uCuRrqc4dmW7NDPMwUlAzxoMLt5LE7753PtmHLEUujONqSsvsEPLlakGH9pGmmAcZxIMbFarWjblmEY2O13XF1fkXMC6WpsfiWogTzbt86kFlt3e1jofsdp9nFyXGqw5awodNO0SIzEnEilDk/UGhqpGY2RpVZXJ5GaHcCycRih2gvdz7ObGYyrmVvrtOd+eXnJcDjw4MFDxuGwWORaa6vAxdsDGkxFzhOnf/M3GK5u8UmQXjXN5DCRc9AK85Ofw1hplw5ku9X3bC2HkHj06B3a/oTr65eqdz3skDAq1bUk7KqiyaOi4jSG1QcfMDx/htnNdezcbVAA12IpEsnjgEwF5zukRNyDh9CtYBx0fe7vqtb4hJtG0niooKYeNEbfBBjBWZ3/z3FUpkFRVKlYsF1P3u0QpWRQJOlTcQrMQT5qbX4loL/qnDEnYHNa5ja9iqfttjgB268Bi0wBu+7xH77P+OKVprLOLUSVxq8RYzUYc4BY6+8EJU6UnChjwmDrTVM+DCVja93spEUkU3Iihok4TUQSUz8xXN1gtgNmPyoXt2TyzQ5aA85SXu8w63NdeFOEVPAOTGs1cIaEO23xXUezWbO/Un205aTKQnGZ/d1LGuuIKfDOO+eEEN56QsNMyrDcbbekrKN/MQWePX9Wg+24rz4nx8dBqTI1c+JrZtlazELEf6PmnU/lORXPmbOzU3LKtG2HiJBSImfV6TqGy23dIOZrzhrMTNOS+8DWn7//jKXoYjfV96rrWnJKPH/+Jacna25vrmnbjrZtkKKOj23TvjWgnbPKMESgFHY//m86wde2pLs9br1CNlY3+2lCooJVBjC2ILZg8HWvEm2Ticc4jzEJimaLpZZ9DpDhADkhTpH0sYFsi+qbYSi+UZorqEmhAb/qySGQDwctDa0okSUGynjAZg3WEvc121LTO6uMFoRMygmbwfkWbKPAWFT9sXmTJSY9XJyn3B00S8ThqXGjDwkqrjVf9ym3LDyko9WlgwC27wnVb1c3eEuZau18usF98A7D5QtsRSZVV1jbCH23IiahGLUKMSlRmlbT85R026hzrNbXtC9lpEApVmuHFLDFklMgTSNhGEg2I8WThwGmgMmFEpMK+OeiaZaS27D7CdZVlC1nPFbbHVJ7rQ/WjK92qkHune7Ek54ExqtuMxKIWRAyFxcrpumXBzS1bRWmiZQSbdvSdz2ffvYpu922+kLPt1iWfvAcpkUES50hRZHR+aQ4vua/LfEosqhwTtNEyiqNq0SWspAUllFIqaczb24o8/s6vhTRZqFzOlhYcgUVP7y+vuZnP/uE7/3695jCpMDYYaBpPOuVSt9KX94qIuic+jabvoXg1DO8bdUyyXls02AvTsFbzNYg20jj15RpIL+80fXjdHDGGsd2OGCdZUx77UFrnguiklcS9PmbUpCsmyE//K+YxqpUlnc4VzW7Y6ZENZcraD/aPHionlvZK5g1jqrPvaTDBdWpz9jGk5P2j401S51tDaQ0knPEOYPzHSmNSMl4Zyk5qahI1Se3BqzxlJQqQL2sgK8HtLKAuFe/EQNtg1mvCfsBUqjmdBV5LRF/cYF8+IT9J7/AHSaMb7CiQSGlYHPhsLvSlovzuL6rCy6RByVb2LaDoqe573o9oWLUWrDoqZzThBFHSRM5TEzDSPaZFDswhRRHSpkQqh+0yYgkwn6ibTyMB/zTR0grpDGQzzpk0+BOe3wuxBdXmNd7Sttg1yvSbq8aVdbdj64h1QrWc3KyYpwmNRP4JZdo5LDbbWnblq7vmaaJ58+ek/IcYFJPx9p+oDajipCrEMQcZXOL6auRN5+eGNTnqH5hu91xdnHBFAP7/V4ZVzM4I2++wDyaef/m9ffcB7U6Ulhb2WL1W5bx0LrRhCkwjSNSCmNUT2VnHcMwkGLm9PSUMYTKF3/zytnqBJp3yiEYIhvbMO4PTIjSQHNGGgO9wY2WtD/oSCQCBXJJGJsxvmEYtpTzFXLa4lNBYiLniLUO65TqaorDtA2mdSQDKQWdj784QU5XlOevlFSUsqqSpILbnJCcbmwlCzYGJAZs9ZcqJmPXK8p2qyc1ypSTvleMJCYkan87h4P28NHXSnFC6lpLRXvOzjp0aCqRSgCZKmZxhKG8zdtqTq2oC8Q2Hab1hJ1K9mJs3eHrP/se3r1g+PwZdqfqJZKTAmRZkDFjjYesrR4rBglBT6eCaidntW21TatZYNAA9t6TJWNyhOzJyaoZe8mUMBHHgeQL8VDIcUJMQmwCW8hT0MHytlG3e2+JhxGXI/67j/FPH5NPe4oXwuVLyn/5FPn0Bnc9IqbRhV+yeiSh6KUzhsZ6phJZrT2rlWea3uxBf+0yOk88TIOO/1Uj791ut1BFl7r1KHDmP0tWNHn+D+Y4glnw6KOfNwtnaJaJvbu7xVpL13dMUZFUm++JIPP+MJdV9++igqDLryzLCb0g5wLG3Isb5pw5Oz/j0aOHDIcDwzTStA3r1QpjlPbqvWe1WlHIXwtoay0xJdgfyLe3NE8fszMgDkrMxGFUno/psJ0nNVZTWVtps+gpP7fnxAo2ZmV9941qxI3K6rJSMKLjq223gs5hUtBsLESKEcr1LU3JpLsR268p6zVm3el7PAzIMOjPOKObQJGFw5G2O203SWG92tCcP2CfMjlETFOQrQ5xCJo1ua4nx4hIUtC4Hh6m6rUXsUipgOGCbcx8+HL/4N4I6CMQxPoGcYayP7Ds+RUkoxRs22HONwyf/gI7pSqBoq+aBBw63icVBTe+0dePk/oEpawsMTGYJCQE69XTtxSh6VY03hOrMFyJiZITtgRyGIlDQ24LJWTKNGlq7YRsChIiJiZFL9s6WRUT8W6PO3+P/PCEw49+Ap9dwotb/KsJgsU0LZIL8TCiwyWaIlksWIt0K3II9H2P944whbfa17wZ05o+j4c93jrOzs7o+q7yvhWgOu4FQ6XazrV1yQuSu+93AAAKOklEQVRTSzg6oJd/0TBcetpHh7hxlta7JTCV5SYV2HK8MeosCwRUUfD5Fwoz0IYoL3vWNqNShK1o7piz8N6777JarXj96iVRCmdnZ2+AYMNw0NP5LUi3tXpCF7TcyK9fEY2K7BsMxIlyFyiDU6ZaThCmxddJmVYW17YkKTRdS4rqWumKICGoGN+jU/LtgdPVmpgiadyT9gmsYDtPWTmyKdicmGe9naKRhKtrJYzEe2nhIpbZfAARnFQGZOMpWRiGETkpijWlhHQNNC1MusHlnEhBRf6sUQR/YQs2jmIskoRqao2Q7jetKv37Vurnskas1b5uJbtjXQWqCgWjtLqTDdPNjZ6ECy1tPl0EsFWOxuO6FSmqsx4YSKnqszoFqWpqLZWrbTAUqyoc+r4zJUGZJkpsSWHEjI2e9KO2tkxvYWXhRut2vNOayOmHdq0jXx2wz2/hpKf59DlcT8g+44wnHPbaYy6FMqnoYak6z4ZCyeiJLHCyaTFG//626/jmiqjE7evXr7EYGu95992n/PgvfkyKkaZplhN27gvL3F2Ye8TzwDtSM6T6N7kP6HulTSriPAd4fe15IkyoAFahZLNsCguttG4I8+7xRmusDmqIoOllPdKzEWyxlJJZrVZs77bcbW9p+06HVYKKBnjvaZuGEKbF3P6NdWOs1pLeIqby10sd1TVeTytRy9lVt0aMY8oz1xy1jrHK887joBrwKYIIyRhyLmRbBzOKMEQ9obMRrVWNYDa9zr7fjYi3ut77HleE8voaK5Fs9TBy8w0DJR6FathY710JYbl/42GnNsTOLBsnkjHS6CxECjTnJ8T9HmN8bSEHjBgavyLlqQbw0fNYDgGz3MOvBLTomKJXp4IZtTGVAKJsJYFVSzrsYBrf6H/pt5eFOGIrGT/EAUn1pMFiYqy/re70Uu1KS6ZYgWKI00QyOk+d44i1npKconspUEIgS0ZiQSSSZCDbEeMTpgUJBZMLeV8gqE+06xzpZ19inp4ijc5ZS4GUdCPJdxNN11K8fpgsLFzrk82KJIVtEM7Oe2VM5Xsdp+MrZ9WVnoOgcZ6cM3d3W7z3PHr0mL7viUlLC6lsH44C+j4gweQ3U+GZE7BodhtDouAUjtTSZgbPlhqKpe010zWFiswcLYt5PXK8cOrmYZ3W4Do0YBbHjPlKKdO0La9fv2YKI2feaVuvfra+65FGiJIwZp7UysxaanpCBwypWhTPyh0FMUmJkKKC+uN4x6yACmm5X04S47AlT6MKEkhZ5tp12TsI2lvOlRAh1dZX8eeMdYY0KqAmrqU4QzGFVd9QpqDfMwOM3kOKpBCxKPZh52CQ2m+2UA5b7OkJ2RpMGKEoky4k5f1jC9PttY7oNq3W+o0HUe26UnvimtXqmhRjsKh6zzH+8UbKDUab729bqcbh12sVAAxBB63rbq9fn9shgqAayKkEsCputixQoFmvlM89n0glI4syilAk0viObEU3lKxypzYGnUxJE8UUVSPZWMz7G8y6aK96PGC2WVH0+rFMMeQQkVuPf/4a+/gMc31Aeg0Y4wWmRJqSEhqKNu8x+p73w14Xco48eHBKTokQvx7QKSVSHaMU1DbFt571as3LL1/gjOpcnZ2d8fr11TKCOINjsxA7y6KYT9cKltX0ewHIQBlyzGamdQzhuM6ea7L634rUMmL+vaZiWkt8HtfOR9nGDN7JrP5Z56ONpugpao/+9dVrmmrzMk3ai7dG/cBijIsQIegUVlOdNoyxxJjJRc0dsGYRIFB3U9DOCZXAoQGJazAialeUAiWOSzaDzAGmn8/IfS9BaqSbkxU2C75A2R3IYdQ0VoqqWRghpUwwijTPrTJE9eo1yI5KE8oyIQfgm46YM3l7C1gkR5zv8e0pMQ9QFCCl3lfJmUYMxVptsaUJJIGpgxk1I6kf8Ch29Tqahy4LJ/T+Y4NIpR06S5aCWT6wq4vWLOtvjiApkSKaVhnRIW1r9FdlhDJV1kst+kmlCmTXXbRk0m6EJmP6XoceYsBGR3HaQhIp5AJmfYLtH5EuVuTdAZ4JWJV+LcYgSbB4TT9f7ck/eY7/re/Ax++Rn78mfXaFWzcwRUqIlJzx1rHqWg7DoBNe89ywhdOzjpgi8S0BnUsmpkRO2vB3zkEyrFZrrHNsb+9wznJ2esKrl68o+b4VJGVedXNqe//ARI4iTnSRzxNvs6vEPLBRjlpbUjddfY16qqCp6dw+mVlg98viaEOhvrZAqQyu5WuzIqkxKjCVMzEGdrstm82GlPJSlsyc9pTiwkBUUPDNwRYRoWkNWSKmeA1qSUcnbC3VMJQUEZS/AECxNTBmMXvuaZEimMbrqZuivlrFFJp3z0khkT95rjRSKcpms6p3bgyIM+wGJa5Y5xZZKdIMFt/LQUoN5jkDCnG4j6m51k4HgnUYp6WK8qxnHCPjmg5rLDmNFQwTyLl+NlnWyH0w/5K21X3kH1+lLiChDEP17hFmsZMjbFxTM6m7tqu5fVI6p0EnlrKBkmbGUjl6WDpTPS8Yw6wDXpBOX0dSIh0OtK1DfD1hUiELZOtg05I7g6fS6UpRnrg1YCFPCe4G5PKG8p0POIsFsuM2XVIOBrLR9D5n9uOB9cmGKYxkUaZWycLpyZoYoyqpfPVOiZCyIuNLf7lOTp2enfHq5Uu6tqPtVghKlbTmCIOo9//+lK5/zJErcB/03PO2j0A1Kfd6b0tqLfffI6LChGZGu48W4vwM37hkphbeL6JaXaGZgQJiJVv2+8iDB7mCfpEwKSi36nS8MCVbkVrFIJqmIaW0vFedWqqSV6ZuQujncc7V7kCqsrgF3zQ6oz8LOYr+jBWW9uu8rk2ZMYWlF4BpLOknnyq4WdST2bnqcDHVzSdFSgbbOEWiS539r9kKVVzAGBYBBf2tR7yO+fYVWeKpkCihVL6BzmmTM3QdiYzECQkjygZLy4amHYj75/HV5/UGsWT+WuGeZC5QTbFT1TWauUo6h6nrQPO25bkvOltzYlYopJrKziQKBzMl0NVdTpLqHs/1kmmRkhBxKnWQUt2ZlTCRS8bkgqSB8vI13A3YohrN4hWJZSwUm2jOV8i6oXjox5FTA5tvvE8W4eb5C1gpSGcEHWRPhTGr60GOsWYPmfXKkWJ6a0BrjaqLWaQ6Fdbnuep7RTVLZkgNxfakNND4tvaGZ2mecp8WSi1rapo1B5+pqfjxNT+rN2PxCAEvcm9jWu434nmzXzKCuUbnntddEYflNbV0qnCoCClFYmx4+Wrim9/WoZ0QI0WEdb/CGUdOiYhyuVNWGePZgfH+fSj3HaNcheWAsaqnbkUprUpc0sfbND05D8tJzlwEal6tgeC8vmZOSmWuNOeSDLb12Dgjy+WeAy9SD5la5282CtItvIH5WdQNQswysHL/BOf7yhLoxlXqbFYGmtJ4NVOTEmDUcVGZueRmRtDrwTeXYGYe1nmz02K+uPn0q+vgV9evrl9d/4Nef/nU+a+uX12/uv6Huv4/1llFZh8eMX8AAAAASUVORK5CYII=;" vertex="1" parent="WIyWlLk6GJQsqaUBKTNV-1">
          <mxGeometry x="211.02" y="700" width="107.96" height="50" as="geometry" />
        </mxCell>
        <mxCell id="IIxFM2otjkW1qtIXAb-W-9" value="视频帧" style="text;html=1;align=center;verticalAlign=middle;resizable=0;points=[];autosize=1;strokeColor=none;fillColor=none;" vertex="1" parent="WIyWlLk6GJQsqaUBKTNV-1">
          <mxGeometry x="236.02" y="680" width="50" height="20" as="geometry" />
        </mxCell>
        <mxCell id="IIxFM2otjkW1qtIXAb-W-10" value="文本" style="text;html=1;align=center;verticalAlign=middle;resizable=0;points=[];autosize=1;strokeColor=none;fillColor=none;" vertex="1" parent="WIyWlLk6GJQsqaUBKTNV-1">
          <mxGeometry x="245" y="550" width="40" height="20" as="geometry" />
        </mxCell>
        <mxCell id="IIxFM2otjkW1qtIXAb-W-11" value="" style="shape=flexArrow;endArrow=classic;html=1;rounded=0;" edge="1" parent="WIyWlLk6GJQsqaUBKTNV-1">
          <mxGeometry width="50" height="50" relative="1" as="geometry">
            <mxPoint x="350" y="589.5" as="sourcePoint" />
            <mxPoint x="430" y="589.5" as="targetPoint" />
          </mxGeometry>
        </mxCell>
        <mxCell id="IIxFM2otjkW1qtIXAb-W-12" value="" style="shape=flexArrow;endArrow=classic;html=1;rounded=0;" edge="1" parent="WIyWlLk6GJQsqaUBKTNV-1">
          <mxGeometry width="50" height="50" relative="1" as="geometry">
            <mxPoint x="430" y="724.5" as="sourcePoint" />
            <mxPoint x="350" y="724.5" as="targetPoint" />
          </mxGeometry>
        </mxCell>
        <mxCell id="IIxFM2otjkW1qtIXAb-W-13" value="" style="endArrow=classic;html=1;rounded=0;" edge="1" parent="WIyWlLk6GJQsqaUBKTNV-1">
          <mxGeometry width="50" height="50" relative="1" as="geometry">
            <mxPoint x="770" y="600" as="sourcePoint" />
            <mxPoint x="880" y="540" as="targetPoint" />
          </mxGeometry>
        </mxCell>
        <mxCell id="IIxFM2otjkW1qtIXAb-W-14" value="输入：文本" style="text;html=1;align=center;verticalAlign=middle;resizable=0;points=[];autosize=1;strokeColor=none;fillColor=none;" vertex="1" parent="WIyWlLk6GJQsqaUBKTNV-1">
          <mxGeometry x="780" y="540" width="80" height="20" as="geometry" />
        </mxCell>
        <mxCell id="IIxFM2otjkW1qtIXAb-W-15" value="输出：文本" style="text;html=1;align=center;verticalAlign=middle;resizable=0;points=[];autosize=1;strokeColor=none;fillColor=none;" vertex="1" parent="WIyWlLk6GJQsqaUBKTNV-1">
          <mxGeometry x="810" y="575" width="80" height="20" as="geometry" />
        </mxCell>
        <mxCell id="IIxFM2otjkW1qtIXAb-W-16" value="输入：分句后的文本" style="text;html=1;align=center;verticalAlign=middle;resizable=0;points=[];autosize=1;strokeColor=none;fillColor=none;" vertex="1" parent="WIyWlLk6GJQsqaUBKTNV-1">
          <mxGeometry x="790" y="640" width="120" height="20" as="geometry" />
        </mxCell>
        <mxCell id="IIxFM2otjkW1qtIXAb-W-18" value="" style="endArrow=classic;html=1;rounded=0;" edge="1" parent="WIyWlLk6GJQsqaUBKTNV-1">
          <mxGeometry width="50" height="50" relative="1" as="geometry">
            <mxPoint x="765" y="665" as="sourcePoint" />
            <mxPoint x="950" y="665" as="targetPoint" />
          </mxGeometry>
        </mxCell>
        <mxCell id="IIxFM2otjkW1qtIXAb-W-19" value="输出：音频+唇形" style="text;html=1;align=center;verticalAlign=middle;resizable=0;points=[];autosize=1;strokeColor=none;fillColor=none;" vertex="1" parent="WIyWlLk6GJQsqaUBKTNV-1">
          <mxGeometry x="795" y="670" width="110" height="20" as="geometry" />
        </mxCell>
        <mxCell id="IIxFM2otjkW1qtIXAb-W-20" value="" style="endArrow=classic;html=1;rounded=0;" edge="1" parent="WIyWlLk6GJQsqaUBKTNV-1">
          <mxGeometry width="50" height="50" relative="1" as="geometry">
            <mxPoint x="775" y="724.5" as="sourcePoint" />
            <mxPoint x="910" y="820" as="targetPoint" />
          </mxGeometry>
        </mxCell>
        <mxCell id="IIxFM2otjkW1qtIXAb-W-21" value="输入：唇形" style="text;html=1;align=center;verticalAlign=middle;resizable=0;points=[];autosize=1;strokeColor=none;fillColor=none;" vertex="1" parent="WIyWlLk6GJQsqaUBKTNV-1">
          <mxGeometry x="825" y="750" width="80" height="20" as="geometry" />
        </mxCell>
        <mxCell id="IIxFM2otjkW1qtIXAb-W-22" value="输出：视频" style="text;html=1;align=center;verticalAlign=middle;resizable=0;points=[];autosize=1;strokeColor=none;fillColor=none;" vertex="1" parent="WIyWlLk6GJQsqaUBKTNV-1">
          <mxGeometry x="795" y="790" width="80" height="20" as="geometry" />
        </mxCell>
        <mxCell id="IIxFM2otjkW1qtIXAb-W-25" value="" style="shape=flexArrow;endArrow=classic;startArrow=classic;html=1;rounded=0;exitX=1;exitY=0.5;exitDx=0;exitDy=0;entryX=0;entryY=0.5;entryDx=0;entryDy=0;" edge="1" parent="WIyWlLk6GJQsqaUBKTNV-1" source="IIxFM2otjkW1qtIXAb-W-2" target="IIxFM2otjkW1qtIXAb-W-1">
          <mxGeometry width="100" height="100" relative="1" as="geometry">
            <mxPoint x="570" y="730" as="sourcePoint" />
            <mxPoint x="670" y="630" as="targetPoint" />
          </mxGeometry>
        </mxCell>
        <mxCell id="IIxFM2otjkW1qtIXAb-W-26" value="？？？" style="text;html=1;align=center;verticalAlign=middle;resizable=0;points=[];autosize=1;strokeColor=none;fillColor=none;" vertex="1" parent="WIyWlLk6GJQsqaUBKTNV-1">
          <mxGeometry x="580" y="620" width="50" height="20" as="geometry" />
        </mxCell>
      </root>
    </mxGraphModel>
  </diagram>
</mxfile>
